<svg xmlns="http://www.w3.org/2000/svg" viewBox="2587.281 12160.256 50.619 63.075">
    <defs>
        <style>
            .cls-1{fill:#bdbcbb}.cls-2{fill:#f2ede0}.cls-3{fill:#fff}.cls-4{fill:#9ea1aa}.cls-5{fill:#4e4f51}
        </style>
    </defs>
    <g id="beaker-icon" transform="translate(2370 11951)">
        <g id="Group_1866" data-name="Group 1866">
            <g id="Group_1864" data-name="Group 1864">
                <path id="Path_1527" d="M257.9 214.4a45.8 45.8 0 0 1-4.7-2.5l-4.7-2.6 3 5.5z" class="cls-1" data-name="Path 1527"/>
                <g id="Group_1860" data-name="Group 1860">
                    <path id="Path_1528" d="M257.9 214.4c-.7-.3-2.6-1.2-4.8-2.4-2.1-1.2-3.9-2.2-4.6-2.7a2.214 2.214 0 0 0-2.4 1.2 2.479 2.479 0 0 0 .1 2.5L218 263.8a5.691 5.691 0 0 0 2.2 7.8 5.6 5.6 0 0 0 7.5-2.3l28.3-51a2.316 2.316 0 0 0 2.2-1.2 2.284 2.284 0 0 0-.3-2.7z" class="cls-2" data-name="Path 1528"/>
                </g>
                <g id="Group_1861" data-name="Group 1861">
                    <path id="Path_1529" d="M257.9 214.4c-.7-.3-2.6-1.2-4.8-2.4-2.1-1.2-3.9-2.2-4.6-2.7a2.214 2.214 0 0 0-2.4 1.2 2.479 2.479 0 0 0 .1 2.5L218 263.8a5.691 5.691 0 0 0 2.2 7.8 5.6 5.6 0 0 0 7.5-2.3l28.3-51a2.316 2.316 0 0 0 2.2-1.2 2.284 2.284 0 0 0-.3-2.7z" class="cls-3" data-name="Path 1529"/>
                </g>
                <path id="Path_1530" d="M250.8 227.7a11.533 11.533 0 0 0-4.9-2.6 9.4 9.4 0 0 1-4.9-2.7l-23 41.4a5.691 5.691 0 0 0 2.2 7.8 5.6 5.6 0 0 0 7.5-2.3z" class="cls-4" data-name="Path 1530"/>
                <path id="Path_1531" d="M227.7 251.2a1.165 1.165 0 0 0-1.6.5l-6.3 11.4a1.185 1.185 0 1 0 2.1 1.1l6.3-11.4a1.377 1.377 0 0 0-.5-1.6z" class="cls-3" data-name="Path 1531"/>
                <path id="Path_1532" d="M232.2 243a1.165 1.165 0 0 0-1.6.5l-1.9 3.4a1.185 1.185 0 1 0 2.1 1.1l1.9-3.4a1.216 1.216 0 0 0-.5-1.6z" class="cls-3" data-name="Path 1532"/>
                <circle id="Ellipse_9437" cx=".9" cy=".9" r=".9" class="cls-5" data-name="Ellipse 9437" transform="rotate(-75.7 268.373 -42.972)"/>
                <circle id="Ellipse_9438" cx="1.7" cy="1.7" r="1.7" class="cls-4" data-name="Ellipse 9438" transform="rotate(-75.7 265.067 -42.02)"/>
                <circle id="Ellipse_9439" cx="2" cy="2" r="2" class="cls-4" data-name="Ellipse 9439" transform="rotate(-75.7 269.45 -44.839)"/>
                <circle id="Ellipse_9440" cx=".8" cy=".8" r=".8" class="cls-5" data-name="Ellipse 9440" transform="translate(244.6 230)"/>
                <circle id="Ellipse_9441" cx=".5" cy=".5" r=".5" class="cls-5" data-name="Ellipse 9441" transform="translate(241.1 232.3)"/>
                <circle id="Ellipse_9442" cx="1.1" cy="1.1" r="1.1" class="cls-5" data-name="Ellipse 9442" transform="rotate(-75.7 273.213 -36.164)"/>
                <path id="Path_1533" d="M249.1 224.5a1 1 0 0 0-.4.1c-.1 0-.2.1-.3.1a.349.349 0 0 0-.2.1.215.215 0 0 1-.2-.2c0-.1 0-.2.1-.2a1.194 1.194 0 0 1 .5-.2l.4-.1a.215.215 0 0 1 .2.2c0 .1 0 .2-.1.2z" class="cls-2" data-name="Path 1533"/>
                <path id="Path_1534" d="M243.2 223.1a1.237 1.237 0 0 1 .2.3.349.349 0 0 0 .1.2c0 .1 0 .2.1.2 0 .1.1.1.2 0a.1.1 0 0 0 .1-.1 1.577 1.577 0 0 0-.1-.4c-.1-.3-.2-.3-.2-.3a.349.349 0 0 0-.2-.1c-.2 0-.3.1-.2.2z" class="cls-2" data-name="Path 1534"/>
                <g id="Group_1862" data-name="Group 1862">
                    <path id="Path_1535" d="M252.1 217.4c1.9 1.1 1.7 2.2.4 4.6-.3.5-1.3 2.4-2.7 4.9a4.871 4.871 0 0 1 1 .8l5.2-9.4s-1-.2-5.1-2.5a30.922 30.922 0 0 1-4.7-2.9c0 .2-.7.8 5.9 4.5z" class="cls-1" data-name="Path 1535"/>
                    <path id="Path_1536" d="M220.2 271.6c.1 0 .1 0 .1.1h.1a.349.349 0 0 0-.2-.1z" class="cls-1" data-name="Path 1536"/>
                    <path id="Path_1537" d="M219.7 271.3a.1.1 0 0 1 .1.1z" class="cls-1" data-name="Path 1537"/>
                </g>
                <path id="Path_1538" d="M227.7 269.4l23.1-41.7a4.871 4.871 0 0 0-1-.8l-23 41.5s-2.7 4.5-8.9 1.1a5.437 5.437 0 0 0 2.3 2.2 5.576 5.576 0 0 0 7.5-2.3z" class="cls-5" data-name="Path 1538"/>
                <g id="Group_1863" data-name="Group 1863">
                    <path id="Path_1539" d="M250.8 225.2c-.3.5-.6 1.1-.9 1.7.2.1.3.2.5.3.1-.1.2-.3.3-.4a2.917 2.917 0 0 0 .1-1.6z" class="cls-5" data-name="Path 1539"/>
                    <path id="Path_1540" d="M220.2 271.6c.1 0 .1 0 .1.1h.1a.349.349 0 0 0-.2-.1z" class="cls-1" data-name="Path 1540"/>
                    <path id="Path_1541" d="M219.7 271.3a.1.1 0 0 1 .1.1z" class="cls-1" data-name="Path 1541"/>
                </g>
            </g>
            <g id="Group_1865" data-name="Group 1865">
                <path id="Path_1542" d="M267.7 239.3c-.6-1.6-3.7-3.5-3.7-3.5a4.4 4.4 0 0 1-.1.9c-.3 1.1-.8 2.9-.4 4.1a2.231 2.231 0 0 0 4.2-1.5z" class="cls-4" data-name="Path 1542"/>
                <path id="Path_1543" d="M266.9 241.9a.349.349 0 0 0 .2-.1l.1-.1c.1 0 .1-.1.2-.1a.1.1 0 0 1 .1-.1l.1-.1a.1.1 0 0 1 .1-.1c0-.1.1-.1.1-.2v-.1c0-.1.1-.1.1-.2v-.4a2.452 2.452 0 0 1-1.3 1.1 1.967 1.967 0 0 1-2.8-1.3 4.8 4.8 0 0 1-.1-2.1 6.167 6.167 0 0 0-.2 2.3v.1c0 .2.1.3.1.5a2.019 2.019 0 0 0 2.8 1.3c.1-.1.3-.1.4-.2 0-.2 0-.2.1-.2z" class="cls-5" data-name="Path 1543"/>
                <path id="Path_1544" d="M266.6 241.2a.738.738 0 0 0 .3-.5.367.367 0 0 0 .1-.3.349.349 0 0 1 .1-.2.187.187 0 0 1 .3 0c.1.1.2.2.2.3a1.548 1.548 0 0 1-.2.6 2.231 2.231 0 0 1-.3.5c-.1.1-.2.1-.4 0-.1-.2-.2-.3-.1-.4z" class="cls-3" data-name="Path 1544"/>
            </g>
            <path id="Path_1545" d="M260.9 228.9c-.1-.9-1.5-2.3-1.5-2.3l-.4 1a4.423 4.423 0 0 0-.5 1.5 1.017 1.017 0 0 0 1.3 1c1.3-.2 1.1-1.2 1.1-1.2z" class="cls-4" data-name="Path 1545"/>
            <path id="Path_1546" d="M260.2 230a1.036 1.036 0 0 1-1.4-.9c-.1-.5.2-1 .3-1.6.1-.2.1-.4.2-.6a6.884 6.884 0 0 0-.3.8 4.423 4.423 0 0 0-.5 1.5 1.017 1.017 0 0 0 1.3 1 1.148 1.148 0 0 0 .9-.5 1.069 1.069 0 0 1-.5.3z" class="cls-5" data-name="Path 1546"/>
        </g>
    </g>
</svg>
