<svg xmlns="http://www.w3.org/2000/svg" viewBox="2489.213 12056.027 58.287 56.192">
    <defs>
        <style>
            .cls-1{fill:#fff}.cls-2{fill:#9ea1aa}
        </style>
    </defs>
    <g id="brain-icon" transform="translate(2370 11951)">
        <path id="Path_1547" d="M149.3 157.4V109s-3.1-4.6-8.6-3.9a7.7 7.7 0 0 0-6.7 5.1s-5.5 1.1-7.7 5.9-1.1 7-1.1 7-5.2 2.6-5.9 8.2a14.052 14.052 0 0 0 2.1 9.2s-1.4 7.7 3.7 11.6 7.6 3 7.6 3a9.853 9.853 0 0 0 6.7 5.9c5.4 1.3 9.9-3.6 9.9-3.6z" class="cls-1" data-name="Path 1547"/>
        <path id="Path_1548" d="M173.4 126.2l4.1-1.1-.4-4.6-4.2-.3a17.187 17.187 0 0 0-2.7-5.2l2.1-3.7-3.5-3-3.2 2.8a15.222 15.222 0 0 0-5.6-1.7l-1.1-4.1-4.6.4-.3 4.2a18.028 18.028 0 0 0-2.1.8v9.4c.1-.2.3-.4.4-.6a7.81 7.81 0 1 1 1 11 7 7 0 0 1-1.4-1.6v9.3a13.173 13.173 0 0 0 4.8 1.3l1.1 4.1 4.6-.4.3-4.2a17.187 17.187 0 0 0 5.2-2.7l3.7 2.1 3-3.5-2.8-3.2a17.424 17.424 0 0 0 1.6-5.5z" class="cls-1" data-name="Path 1548"/>
        <path id="Path_1549" d="M168.7 140.8l1.7-1.4-.7-1.2-1.2-.7-1.5.5-.2-.2a19.277 19.277 0 0 1-3.8 1.9 4.177 4.177 0 0 1 2 4.7 4.064 4.064 0 0 1-2.6 2.8 5.437 5.437 0 0 1 0 1.8l2.7 1.3-.5 1.9.4.4 2.1-1.2-.8-2.1a8.758 8.758 0 0 0 1.9-2.4l2.2.2.6-2.3-2-.9a7.813 7.813 0 0 0-.3-3.1z" class="cls-2" data-name="Path 1549"/>
        <path id="Path_1550" d="M161.3 145.3l2.3-1.9-.7-1.2-.2 1.9-5.2.4-1.2-4.3a21.623 21.623 0 0 1-4.4-1v4.1c.2 0 .5.1.7.1a5.507 5.507 0 0 1 3.9 6.7 5.6 5.6 0 0 1-4.6 4v5.2a12.816 12.816 0 0 0 2.7-.5l1.9 2.3 2.8-1.6-1-2.8a10.3 10.3 0 0 0 2.5-3.3l3 .3.8-3.1-2.7-1.3a13.859 13.859 0 0 0-.6-4z" class="cls-2" data-name="Path 1550"/>
    </g>
</svg>
