<svg xmlns="http://www.w3.org/2000/svg" viewBox="2581.092 11952.192 53.017 54.708">
    <defs>
        <style>
            .cls-1{fill:#89898b}.cls-2{fill:#fff}.cls-3{fill:#9ea1aa}
        </style>
    </defs>
    <g id="pencil-icon" transform="translate(2370 11951)">
        <g id="Group_1857" data-name="Group 1857">
            <path id="Path_1514" d="M214.6 12l6.9-7.1 1 1.1-6.9 7.1z" class="cls-1" data-name="Path 1514"/>
            <path id="Path_1515" d="M255.1 43.1l-34-35-1.5 1.5 33 33.9a2.237 2.237 0 0 0 2.5-.4" class="cls-2" data-name="Path 1515"/>
            <path id="Path_1516" d="M255.4 42.8l-34-35 1.5-1.6 33 33.9a3.358 3.358 0 0 1-.5 2.7" class="cls-2" data-name="Path 1516"/>
            <path id="Path_1517" d="M251.8 46.5l-34-35 1.5-1.5 33 33.9a3.164 3.164 0 0 1-.5 2.6" class="cls-3" data-name="Path 1517"/>
            <path id="Path_1518" d="M251.5 46.8l-34-35-1.5 1.5 33 33.9a2.237 2.237 0 0 0 2.5-.4" class="cls-1" data-name="Path 1518"/>
            <path id="Path_1519" d="M264 54.7l-6.8-12.8s-.6-.8-.5-.2a2.965 2.965 0 0 1-.7 2.1 3.581 3.581 0 0 1-2.5 1.1 4 4 0 0 1-1 2.6 2.737 2.737 0 0 1-2 .7c-.6 0 .2.6.2.6l12.4 7a.693.693 0 0 0 1-.3 1.949 1.949 0 0 0-.1-.8z" class="cls-1" data-name="Path 1519"/>
            <path id="Path_1520" d="M217.7 8.1l3.5-3.6-3-3.1a.6.6 0 0 0-.8-.1l-3.1 3.2-3.1 3.2s-.3.3.1.8l3 3.1z" class="cls-3" data-name="Path 1520"/>
        </g>
        <path id="Path_1521" d="M264 54.7l-6.8-12.8s-.6-.8-.5-.2a2.965 2.965 0 0 1-.7 2.1 3.581 3.581 0 0 1-2.5 1.1l10.4 10.8a.92.92 0 0 0 .1-1z" class="cls-2" data-name="Path 1521"/>
        <path id="Path_1522" d="M219 9.6l3.5-3.6-1-1.1-3.5 3.6z" class="cls-2" data-name="Path 1522"/>
        <path id="Path_1523" d="M218.2 1.5a.6.6 0 0 0-.8-.1l-3.1 3.2-.1.1 3.4 3.5.1-.1 3.5-3.6z" class="cls-2" data-name="Path 1523"/>
    </g>
</svg>
