<svg xmlns="http://www.w3.org/2000/svg" viewBox="2379.9 11951 68.7 58.2">
    <defs>
        <style>
            .cls-1{fill:#fff}.cls-2{fill:#89898b}
        </style>
    </defs>
    <g id="syntax-icon" transform="translate(2370 11951)">
        <path id="Path_1524" d="M16.2 38.8a5.443 5.443 0 0 0-1.6-4.3A6.8 6.8 0 0 0 9.9 33v-7.8a7.123 7.123 0 0 0 4.7-1.4 5.139 5.139 0 0 0 1.6-4.1V9.1c0-3.3.8-5.7 2.4-7s4.4-2 8.4-2v7.3a5.085 5.085 0 0 0-3.4 1.2 5.51 5.51 0 0 0-.9 3.4v9.7q-.15 6.15-5.7 7.2v.4q5.7 1.2 5.7 6.9v10a5.51 5.51 0 0 0 .9 3.4c.6.8 1.7 1.2 3.4 1.2v7.4c-4 0-6.8-.7-8.4-2-1.6-1.4-2.4-3.7-2.4-7.1z" class="cls-1" data-name="Path 1524"/>
        <path id="Path_1525" d="M72.2 49.1a11.476 11.476 0 0 1-1 5.5 6.413 6.413 0 0 1-3.3 2.7 18.137 18.137 0 0 1-6.4.9v-7.4a4.254 4.254 0 0 0 3.4-1.2 5.315 5.315 0 0 0 .9-3.4V36.1a6.438 6.438 0 0 1 1.5-4.5 7.2 7.2 0 0 1 4.3-2.3v-.4c-3.7-.7-5.6-3.2-5.7-7.2V12a5.51 5.51 0 0 0-.9-3.4c-.6-.7-1.7-1.1-3.4-1.2V0a18.137 18.137 0 0 1 6.4.9 6.036 6.036 0 0 1 3.3 2.7 11.741 11.741 0 0 1 1 5.5v10.7a5.289 5.289 0 0 0 1.5 4.1 7.051 7.051 0 0 0 4.8 1.4V33a7.3 7.3 0 0 0-4.7 1.3c-1.1.9-1.6 2.4-1.6 4.5z" class="cls-1" data-name="Path 1525"/>
        <path id="Path_1526" d="M48.2 19h-7.9v-7.9h7.9zm-8 28.5v-3.6a6.3 6.3 0 0 0 2.2-2.1 7.956 7.956 0 0 0 1.1-2.5 10.323 10.323 0 0 0 .4-3h-3.7v-7.9h7.9v4.9a19.885 19.885 0 0 1-.9 6.8 14.544 14.544 0 0 1-2.6 4.3 11.7 11.7 0 0 1-4.4 3.1z" class="cls-2" data-name="Path 1526"/>
    </g>
</svg>
