<svg xmlns="http://www.w3.org/2000/svg" viewBox="2370 12142.5 80.4 80.5">
    <defs>
        <style>
            .cls-1{fill:#fff}
        </style>
    </defs>
    <g id="world-icon" transform="translate(2370 11951)">
        <path id="Path_1513" d="M40.2 191.5a40.25 40.25 0 1 0 40.2 40.3 40.288 40.288 0 0 0-40.2-40.3zm0 76.3c-1.2 0-3.9-2.4-6.2-9a70.984 70.984 0 0 1-2.5-9.4 63.374 63.374 0 0 1 17.4 0 58.34 58.34 0 0 1-2.5 9.4c-2.3 6.6-5 9-6.2 9zm0-22a55.323 55.323 0 0 0-9.2.7 93.322 93.322 0 0 1-1-13.3h20.4a112.233 112.233 0 0 1-1 13.3 54.506 54.506 0 0 0-9.2-.7zm0-50.1c1.2 0 3.9 2.4 6.2 9a70.984 70.984 0 0 1 2.5 9.4 63.374 63.374 0 0 1-17.4 0 58.34 58.34 0 0 1 2.5-9.4c2.3-6.6 5-9 6.2-9zm0 22a55.323 55.323 0 0 0 9.2-.7 93.322 93.322 0 0 1 1 13.3H30a112.233 112.233 0 0 1 1-13.3 55.323 55.323 0 0 0 9.2.7zm14.4 15.5h22.8a37.077 37.077 0 0 1-7.6 21.1c-4.2-3.2-9.8-5.6-16.4-7.1a101.434 101.434 0 0 0 1.2-14zm0-2.9a100.672 100.672 0 0 0-1.1-14 41.835 41.835 0 0 0 16.4-7.1 37.077 37.077 0 0 1 7.6 21.1zm14.5-22c-.3-.3-.5-.6-.8-.9a45.357 45.357 0 0 1-15.3 6.1c-1.5-8.1-4-14.7-7-18.4a36.734 36.734 0 0 1 23.1 13.2zm.7.9a8.65 8.65 0 0 1-.7-1 8.648 8.648 0 0 0 .7 1zM34.4 195c-3 3.7-5.5 10.3-7 18.4a45.357 45.357 0 0 1-15.3-6.1c-.5.6-1.1 1.2-1.6 1.9 4.2 3.2 9.8 5.6 16.4 7.1a120.511 120.511 0 0 0-1.1 14H3A37.278 37.278 0 0 1 34.4 195zM3 233.2h22.8a100.672 100.672 0 0 0 1.1 14 41.835 41.835 0 0 0-16.4 7.1 14.623 14.623 0 0 0 1.6 1.9 45.357 45.357 0 0 1 15.3-6.1c1.5 8.2 4 14.7 7 18.4A37.279 37.279 0 0 1 3 233.2zm43 35.3c3-3.7 5.5-10.3 7-18.4a45.357 45.357 0 0 1 15.3 6.1c.3-.3.5-.6.8-.9A37.186 37.186 0 0 1 46 268.5zm23.8-14.2c-.2.3-.5.6-.7.9.2-.3.5-.6.7-.9z" class="cls-1" data-name="Path 1513"/>
    </g>
</svg>
