<?xml version="1.0" encoding="utf-8"?>
<!-- Generator: Adobe Illustrator 22.1.0, SVG Export Plug-In . SVG Version: 6.00 Build 0)  -->
<svg version="1.1" xmlns="http://www.w3.org/2000/svg" xmlns:xlink="http://www.w3.org/1999/xlink" x="0px" y="0px"
	 viewBox="0 0 1277 797" style="enable-background:new 0 0 1277 797;" xml:space="preserve">
<style type="text/css">
	.st0{clip-path:url(#SVGID_2_);fill:#53387A;}
	.st1{fill:#00CEC1;}
	.st2{clip-path:url(#SVGID_4_);fill:#FFBDE1;}
	.st3{clip-path:url(#SVGID_4_);}
	.st4{fill:#FFBDE1;}
	.st5{fill:none;stroke:#53387A;stroke-width:11;stroke-miterlimit:10;}
	.st6{fill:#53387A;}
	.st7{fill:#BC7FD3;}
	.st8{fill:#FFE33B;}
	.st9{fill:#FDDA50;}
</style>
<g id="Layer_2">
</g>
<g id="Layer_1">
</g>
<g id="bg">
</g>
<g id="Layer_12">
</g>
<g id="Layer_11">
</g>
<g id="type">
	<g>
		<g>
			<defs>
				<polygon id="SVGID_1_" points="1254.9,14.7 1069.6,709.3 13.9,709.3 35.9,717.7 1117.8,737.3 1265.8,39.5 				"/>
			</defs>
			<clipPath id="SVGID_2_">
				<use xlink:href="#SVGID_1_"  style="overflow:visible;"/>
			</clipPath>
			<circle class="st0" cx="1264.1" cy="-61.3" r="7.3"/>
			<circle class="st0" cx="1279.4" cy="-78.9" r="7.3"/>
			<circle class="st0" cx="1261.5" cy="-78.3" r="7.3"/>
			<circle class="st0" cx="1276.8" cy="-95.9" r="7.3"/>
			<circle class="st0" cx="1283.1" cy="-45.4" r="7.3"/>
			<circle class="st0" cx="1298.4" cy="-63.1" r="7.3"/>
			<circle class="st0" cx="1280.5" cy="-62.4" r="7.3"/>
			<circle class="st0" cx="1295.8" cy="-80.1" r="7.3"/>
			<circle class="st0" cx="1274.3" cy="-113" r="7.3"/>
			<circle class="st0" cx="1289.6" cy="-130.6" r="7.3"/>
			<circle class="st0" cx="1271.7" cy="-130" r="7.3"/>
			<circle class="st0" cx="1287" cy="-147.6" r="7.3"/>
			<circle class="st0" cx="1293.3" cy="-97.1" r="7.3"/>
			<circle class="st0" cx="1308.6" cy="-114.7" r="7.3"/>
			<circle class="st0" cx="1290.7" cy="-114.1" r="7.3"/>
			<circle class="st0" cx="1306" cy="-131.8" r="7.3"/>
			<circle class="st0" cx="1302.1" cy="-29.6" r="7.3"/>
			<circle class="st0" cx="1317.4" cy="-47.2" r="7.3"/>
			<circle class="st0" cx="1299.5" cy="-46.6" r="7.3"/>
			<circle class="st0" cx="1314.8" cy="-64.2" r="7.3"/>
			<circle class="st0" cx="1321.1" cy="-13.7" r="7.3"/>
			<circle class="st0" cx="1336.4" cy="-31.4" r="7.3"/>
			<circle class="st0" cx="1318.5" cy="-30.8" r="7.3"/>
			<circle class="st0" cx="1333.8" cy="-48.4" r="7.3"/>
			<circle class="st0" cx="1312.3" cy="-81.3" r="7.3"/>
			<circle class="st0" cx="1327.6" cy="-98.9" r="7.3"/>
			<circle class="st0" cx="1309.7" cy="-98.3" r="7.3"/>
			<circle class="st0" cx="1325" cy="-115.9" r="7.3"/>
			<circle class="st0" cx="1331.3" cy="-65.4" r="7.3"/>
			<circle class="st0" cx="1346.6" cy="-83" r="7.3"/>
			<circle class="st0" cx="1328.7" cy="-82.4" r="7.3"/>
			<circle class="st0" cx="1344" cy="-100.1" r="7.3"/>
			<circle class="st0" cx="1242.7" cy="42.5" r="7.3"/>
			<circle class="st0" cx="1258" cy="24.9" r="7.3"/>
			<circle class="st0" cx="1240.2" cy="25.5" r="7.3"/>
			<circle class="st0" cx="1255.4" cy="7.8" r="7.3"/>
			<circle class="st0" cx="1261.7" cy="58.3" r="7.3"/>
			<circle class="st0" cx="1277" cy="40.7" r="7.3"/>
			<circle class="st0" cx="1259.2" cy="41.3" r="7.3"/>
			<circle class="st0" cx="1274.4" cy="23.7" r="7.3"/>
			<circle class="st0" cx="1252.9" cy="-9.2" r="7.3"/>
			<circle class="st0" cx="1268.2" cy="-26.8" r="7.3"/>
			<circle class="st0" cx="1250.4" cy="-26.2" r="7.3"/>
			<circle class="st0" cx="1265.6" cy="-43.8" r="7.3"/>
			<circle class="st0" cx="1271.9" cy="6.7" r="7.3"/>
			<circle class="st0" cx="1287.2" cy="-11" r="7.3"/>
			<circle class="st0" cx="1269.4" cy="-10.4" r="7.3"/>
			<circle class="st0" cx="1284.6" cy="-28" r="7.3"/>
			<circle class="st0" cx="1280.7" cy="74.2" r="7.3"/>
			<circle class="st0" cx="1296" cy="56.6" r="7.3"/>
			<circle class="st0" cx="1278.2" cy="57.2" r="7.3"/>
			<circle class="st0" cx="1293.4" cy="39.5" r="7.3"/>
			<circle class="st0" cx="1299.7" cy="90" r="7.3"/>
			<circle class="st0" cx="1315" cy="72.4" r="7.3"/>
			<circle class="st0" cx="1297.2" cy="73" r="7.3"/>
			<circle class="st0" cx="1312.4" cy="55.4" r="7.3"/>
			<circle class="st0" cx="1290.9" cy="22.5" r="7.3"/>
			<circle class="st0" cx="1306.2" cy="4.9" r="7.3"/>
			<circle class="st0" cx="1288.4" cy="5.5" r="7.3"/>
			<circle class="st0" cx="1303.6" cy="-12.2" r="7.3"/>
			<circle class="st0" cx="1309.9" cy="38.4" r="7.3"/>
			<circle class="st0" cx="1325.2" cy="20.7" r="7.3"/>
			<circle class="st0" cx="1307.4" cy="21.3" r="7.3"/>
			<circle class="st0" cx="1322.6" cy="3.7" r="7.3"/>
			<circle class="st0" cx="1200.4" cy="131.2" r="7.3"/>
			<circle class="st0" cx="1215.7" cy="113.6" r="7.3"/>
			<circle class="st0" cx="1197.9" cy="114.2" r="7.3"/>
			<circle class="st0" cx="1213.1" cy="96.6" r="7.3"/>
			<circle class="st0" cx="1219.4" cy="147.1" r="7.3"/>
			<circle class="st0" cx="1234.7" cy="129.4" r="7.3"/>
			<circle class="st0" cx="1216.9" cy="130" r="7.3"/>
			<circle class="st0" cx="1232.1" cy="112.4" r="7.3"/>
			<circle class="st0" cx="1210.6" cy="79.5" r="7.3"/>
			<circle class="st0" cx="1225.9" cy="61.9" r="7.3"/>
			<circle class="st0" cx="1208.1" cy="62.5" r="7.3"/>
			<circle class="st0" cx="1223.3" cy="44.9" r="7.3"/>
			<circle class="st0" cx="1229.6" cy="95.4" r="7.3"/>
			<circle class="st0" cx="1244.9" cy="77.7" r="7.3"/>
			<circle class="st0" cx="1227.1" cy="78.4" r="7.3"/>
			<circle class="st0" cx="1242.3" cy="60.7" r="7.3"/>
			<circle class="st0" cx="1238.4" cy="162.9" r="7.3"/>
			<circle class="st0" cx="1253.7" cy="145.3" r="7.3"/>
			<circle class="st0" cx="1235.9" cy="145.9" r="7.3"/>
			<circle class="st0" cx="1251.1" cy="128.3" r="7.3"/>
			<circle class="st0" cx="1257.4" cy="178.8" r="7.3"/>
			<circle class="st0" cx="1272.7" cy="161.1" r="7.3"/>
			<circle class="st0" cx="1254.9" cy="161.7" r="7.3"/>
			<circle class="st0" cx="1270.1" cy="144.1" r="7.3"/>
			<circle class="st0" cx="1248.6" cy="111.2" r="7.3"/>
			<circle class="st0" cx="1263.9" cy="93.6" r="7.3"/>
			<circle class="st0" cx="1246.1" cy="94.2" r="7.3"/>
			<circle class="st0" cx="1261.3" cy="76.6" r="7.3"/>
			<circle class="st0" cx="1267.6" cy="127.1" r="7.3"/>
			<circle class="st0" cx="1282.9" cy="109.4" r="7.3"/>
			<circle class="st0" cx="1265.1" cy="110.1" r="7.3"/>
			<circle class="st0" cx="1280.3" cy="92.4" r="7.3"/>
			<circle class="st0" cx="1179" cy="235" r="7.3"/>
			<circle class="st0" cx="1194.3" cy="217.4" r="7.3"/>
			<circle class="st0" cx="1176.5" cy="218" r="7.3"/>
			<circle class="st0" cx="1191.8" cy="200.3" r="7.3"/>
			<circle class="st0" cx="1198" cy="250.8" r="7.3"/>
			<circle class="st0" cx="1213.3" cy="233.2" r="7.3"/>
			<circle class="st0" cx="1195.5" cy="233.8" r="7.3"/>
			<circle class="st0" cx="1210.8" cy="216.2" r="7.3"/>
			<circle class="st0" cx="1189.2" cy="183.3" r="7.3"/>
			<circle class="st0" cx="1204.5" cy="165.7" r="7.3"/>
			<circle class="st0" cx="1186.7" cy="166.3" r="7.3"/>
			<circle class="st0" cx="1202" cy="148.6" r="7.3"/>
			<circle class="st0" cx="1208.2" cy="199.1" r="7.3"/>
			<circle class="st0" cx="1223.5" cy="181.5" r="7.3"/>
			<circle class="st0" cx="1205.7" cy="182.1" r="7.3"/>
			<circle class="st0" cx="1221" cy="164.5" r="7.3"/>
			<circle class="st0" cx="1217" cy="266.7" r="7.3"/>
			<circle class="st0" cx="1232.3" cy="249" r="7.3"/>
			<circle class="st0" cx="1214.5" cy="249.7" r="7.3"/>
			<circle class="st0" cx="1229.8" cy="232" r="7.3"/>
			<circle class="st0" cx="1236" cy="282.5" r="7.3"/>
			<circle class="st0" cx="1251.3" cy="264.9" r="7.3"/>
			<circle class="st0" cx="1233.5" cy="265.5" r="7.3"/>
			<circle class="st0" cx="1248.8" cy="247.9" r="7.3"/>
			<circle class="st0" cx="1227.2" cy="215" r="7.3"/>
			<circle class="st0" cx="1242.5" cy="197.4" r="7.3"/>
			<circle class="st0" cx="1224.7" cy="198" r="7.3"/>
			<circle class="st0" cx="1240" cy="180.3" r="7.3"/>
			<circle class="st0" cx="1246.2" cy="230.8" r="7.3"/>
			<circle class="st0" cx="1261.5" cy="213.2" r="7.3"/>
			<circle class="st0" cx="1243.7" cy="213.8" r="7.3"/>
			<circle class="st0" cx="1259" cy="196.2" r="7.3"/>
			<circle class="st0" cx="1157.8" cy="336.4" r="7.3"/>
			<circle class="st0" cx="1173.1" cy="318.8" r="7.3"/>
			<circle class="st0" cx="1155.3" cy="319.4" r="7.3"/>
			<circle class="st0" cx="1170.6" cy="301.8" r="7.3"/>
			<circle class="st0" cx="1176.8" cy="352.3" r="7.3"/>
			<circle class="st0" cx="1192.1" cy="334.6" r="7.3"/>
			<circle class="st0" cx="1174.3" cy="335.3" r="7.3"/>
			<circle class="st0" cx="1189.6" cy="317.6" r="7.3"/>
			<circle class="st0" cx="1168" cy="284.7" r="7.3"/>
			<circle class="st0" cx="1183.3" cy="267.1" r="7.3"/>
			<circle class="st0" cx="1165.5" cy="267.7" r="7.3"/>
			<circle class="st0" cx="1180.8" cy="250.1" r="7.3"/>
			<circle class="st0" cx="1187" cy="300.6" r="7.3"/>
			<circle class="st0" cx="1202.3" cy="283" r="7.3"/>
			<circle class="st0" cx="1184.5" cy="283.6" r="7.3"/>
			<circle class="st0" cx="1199.8" cy="265.9" r="7.3"/>
			<circle class="st0" cx="1195.8" cy="368.1" r="7.3"/>
			<circle class="st0" cx="1211.1" cy="350.5" r="7.3"/>
			<circle class="st0" cx="1193.3" cy="351.1" r="7.3"/>
			<circle class="st0" cx="1208.6" cy="333.5" r="7.3"/>
			<circle class="st0" cx="1214.8" cy="384" r="7.3"/>
			<circle class="st0" cx="1230.1" cy="366.3" r="7.3"/>
			<circle class="st0" cx="1212.3" cy="366.9" r="7.3"/>
			<circle class="st0" cx="1227.6" cy="349.3" r="7.3"/>
			<circle class="st0" cx="1206" cy="316.4" r="7.3"/>
			<circle class="st0" cx="1221.3" cy="298.8" r="7.3"/>
			<circle class="st0" cx="1203.5" cy="299.4" r="7.3"/>
			<circle class="st0" cx="1218.8" cy="281.8" r="7.3"/>
			<circle class="st0" cx="1225" cy="332.3" r="7.3"/>
			<circle class="st0" cx="1240.3" cy="314.7" r="7.3"/>
			<circle class="st0" cx="1222.5" cy="315.3" r="7.3"/>
			<circle class="st0" cx="1237.8" cy="297.6" r="7.3"/>
			<circle class="st0" cx="1136.5" cy="440.2" r="7.3"/>
			<circle class="st0" cx="1151.7" cy="422.6" r="7.3"/>
			<circle class="st0" cx="1133.9" cy="423.2" r="7.3"/>
			<circle class="st0" cx="1149.2" cy="405.5" r="7.3"/>
			<circle class="st0" cx="1155.5" cy="456" r="7.3"/>
			<circle class="st0" cx="1170.7" cy="438.4" r="7.3"/>
			<circle class="st0" cx="1152.9" cy="439" r="7.3"/>
			<circle class="st0" cx="1168.2" cy="421.4" r="7.3"/>
			<circle class="st0" cx="1146.7" cy="388.5" r="7.3"/>
			<circle class="st0" cx="1161.9" cy="370.9" r="7.3"/>
			<circle class="st0" cx="1144.1" cy="371.5" r="7.3"/>
			<circle class="st0" cx="1159.4" cy="353.9" r="7.3"/>
			<circle class="st0" cx="1165.7" cy="404.4" r="7.3"/>
			<circle class="st0" cx="1180.9" cy="386.7" r="7.3"/>
			<circle class="st0" cx="1163.1" cy="387.3" r="7.3"/>
			<circle class="st0" cx="1178.4" cy="369.7" r="7.3"/>
			<circle class="st0" cx="1174.5" cy="471.9" r="7.3"/>
			<circle class="st0" cx="1189.7" cy="454.3" r="7.3"/>
			<circle class="st0" cx="1171.9" cy="454.9" r="7.3"/>
			<circle class="st0" cx="1187.2" cy="437.2" r="7.3"/>
			<circle class="st0" cx="1193.4" cy="487.7" r="7.3"/>
			<circle class="st0" cx="1208.7" cy="470.1" r="7.3"/>
			<circle class="st0" cx="1190.9" cy="470.7" r="7.3"/>
			<circle class="st0" cx="1206.2" cy="453.1" r="7.3"/>
			<circle class="st0" cx="1184.7" cy="420.2" r="7.3"/>
			<circle class="st0" cx="1199.9" cy="402.6" r="7.3"/>
			<circle class="st0" cx="1182.1" cy="403.2" r="7.3"/>
			<circle class="st0" cx="1197.4" cy="385.5" r="7.3"/>
			<circle class="st0" cx="1203.7" cy="436.1" r="7.3"/>
			<circle class="st0" cx="1218.9" cy="418.4" r="7.3"/>
			<circle class="st0" cx="1201.1" cy="419" r="7.3"/>
			<circle class="st0" cx="1216.4" cy="401.4" r="7.3"/>
			<circle class="st0" cx="1094.2" cy="528.9" r="7.3"/>
			<circle class="st0" cx="1109.4" cy="511.3" r="7.3"/>
			<circle class="st0" cx="1091.6" cy="511.9" r="7.3"/>
			<circle class="st0" cx="1106.9" cy="494.3" r="7.3"/>
			<circle class="st0" cx="1113.2" cy="544.8" r="7.3"/>
			<circle class="st0" cx="1128.4" cy="527.1" r="7.3"/>
			<circle class="st0" cx="1110.6" cy="527.7" r="7.3"/>
			<circle class="st0" cx="1125.9" cy="510.1" r="7.3"/>
			<circle class="st0" cx="1104.4" cy="477.2" r="7.3"/>
			<circle class="st0" cx="1119.6" cy="459.6" r="7.3"/>
			<circle class="st0" cx="1101.8" cy="460.2" r="7.3"/>
			<circle class="st0" cx="1117.1" cy="442.6" r="7.3"/>
			<circle class="st0" cx="1123.4" cy="493.1" r="7.3"/>
			<circle class="st0" cx="1138.6" cy="475.4" r="7.3"/>
			<circle class="st0" cx="1120.8" cy="476.1" r="7.3"/>
			<circle class="st0" cx="1136.1" cy="458.4" r="7.3"/>
			<circle class="st0" cx="1132.2" cy="560.6" r="7.3"/>
			<circle class="st0" cx="1147.4" cy="543" r="7.3"/>
			<circle class="st0" cx="1129.6" cy="543.6" r="7.3"/>
			<circle class="st0" cx="1144.9" cy="526" r="7.3"/>
			<circle class="st0" cx="1151.2" cy="576.5" r="7.3"/>
			<circle class="st0" cx="1166.4" cy="558.8" r="7.3"/>
			<circle class="st0" cx="1148.6" cy="559.4" r="7.3"/>
			<circle class="st0" cx="1163.9" cy="541.8" r="7.3"/>
			<circle class="st0" cx="1142.4" cy="508.9" r="7.3"/>
			<circle class="st0" cx="1157.6" cy="491.3" r="7.3"/>
			<circle class="st0" cx="1139.8" cy="491.9" r="7.3"/>
			<circle class="st0" cx="1155.1" cy="474.3" r="7.3"/>
			<circle class="st0" cx="1161.4" cy="524.8" r="7.3"/>
			<circle class="st0" cx="1176.6" cy="507.1" r="7.3"/>
			<circle class="st0" cx="1158.8" cy="507.7" r="7.3"/>
			<circle class="st0" cx="1174.1" cy="490.1" r="7.3"/>
			<circle class="st0" cx="1072.8" cy="632.7" r="7.3"/>
			<circle class="st0" cx="1088.1" cy="615" r="7.3"/>
			<circle class="st0" cx="1070.2" cy="615.7" r="7.3"/>
			<circle class="st0" cx="1085.5" cy="598" r="7.3"/>
			<circle class="st0" cx="1091.8" cy="648.5" r="7.3"/>
			<circle class="st0" cx="1083.2" cy="662.1" r="7.3"/>
			<circle class="st0" cx="1073.2" cy="648.1" r="7.3"/>
			<circle class="st0" cx="1068.2" cy="668.1" r="7.3"/>
			<circle class="st0" cx="1107.1" cy="630.9" r="7.3"/>
			<circle class="st0" cx="1089.2" cy="631.5" r="7.3"/>
			<circle class="st0" cx="1104.5" cy="613.9" r="7.3"/>
			<circle class="st0" cx="1083" cy="581" r="7.3"/>
			<circle class="st0" cx="1098.3" cy="563.4" r="7.3"/>
			<circle class="st0" cx="1080.4" cy="564" r="7.3"/>
			<circle class="st0" cx="1095.7" cy="546.3" r="7.3"/>
			<circle class="st0" cx="1102" cy="596.8" r="7.3"/>
			<circle class="st0" cx="1117.3" cy="579.2" r="7.3"/>
			<circle class="st0" cx="1099.4" cy="579.8" r="7.3"/>
			<circle class="st0" cx="1114.7" cy="562.2" r="7.3"/>
			<circle class="st0" cx="1109.3" cy="666.3" r="7.3"/>
			<circle class="st0" cx="1126.1" cy="646.7" r="7.3"/>
			<circle class="st0" cx="1108.2" cy="647.4" r="7.3"/>
			<circle class="st0" cx="1123.5" cy="629.7" r="7.3"/>
			<circle class="st0" cx="1129.8" cy="680.2" r="7.3"/>
			<circle class="st0" cx="1145.1" cy="662.6" r="7.3"/>
			<circle class="st0" cx="1127.2" cy="663.2" r="7.3"/>
			<circle class="st0" cx="1142.5" cy="645.6" r="7.3"/>
			<circle class="st0" cx="1121" cy="612.7" r="7.3"/>
			<circle class="st0" cx="1136.3" cy="595.1" r="7.3"/>
			<circle class="st0" cx="1118.4" cy="595.7" r="7.3"/>
			<circle class="st0" cx="1133.7" cy="578" r="7.3"/>
			<circle class="st0" cx="1140" cy="628.5" r="7.3"/>
			<circle class="st0" cx="1155.3" cy="610.9" r="7.3"/>
			<circle class="st0" cx="1137.4" cy="611.5" r="7.3"/>
			<circle class="st0" cx="1152.7" cy="593.9" r="7.3"/>
			<circle class="st0" cx="316.7" cy="680" r="7.3"/>
			<circle class="st0" cx="338" cy="689.7" r="7.3"/>
			<circle class="st0" cx="332.4" cy="672.8" r="7.3"/>
			<circle class="st0" cx="353.6" cy="682.5" r="7.3"/>
			<circle class="st0" cx="306.9" cy="702.7" r="7.3"/>
			<circle class="st0" cx="328.1" cy="712.4" r="7.3"/>
			<circle class="st0" cx="322.5" cy="695.5" r="7.3"/>
			<circle class="st0" cx="343.7" cy="705.2" r="7.3"/>
			<circle class="st0" cx="369.2" cy="675.3" r="7.3"/>
			<circle class="st0" cx="390.4" cy="685" r="7.3"/>
			<circle class="st0" cx="384.8" cy="668.1" r="7.3"/>
			<circle class="st0" cx="406.1" cy="677.8" r="7.3"/>
			<circle class="st0" cx="359.3" cy="698" r="7.3"/>
			<circle class="st0" cx="380.5" cy="707.7" r="7.3"/>
			<circle class="st0" cx="375" cy="690.7" r="7.3"/>
			<circle class="st0" cx="396.2" cy="700.5" r="7.3"/>
			<circle class="st0" cx="297" cy="725.3" r="7.3"/>
			<circle class="st0" cx="318.2" cy="735.1" r="7.3"/>
			<circle class="st0" cx="312.6" cy="718.1" r="7.3"/>
			<circle class="st0" cx="333.8" cy="727.9" r="7.3"/>
			<circle class="st0" cx="287.1" cy="748" r="7.3"/>
			<circle class="st0" cx="308.3" cy="757.8" r="7.3"/>
			<circle class="st0" cx="302.7" cy="740.8" r="7.3"/>
			<circle class="st0" cx="323.9" cy="750.5" r="7.3"/>
			<circle class="st0" cx="349.4" cy="720.6" r="7.3"/>
			<circle class="st0" cx="370.7" cy="730.4" r="7.3"/>
			<circle class="st0" cx="365.1" cy="713.4" r="7.3"/>
			<circle class="st0" cx="386.3" cy="723.2" r="7.3"/>
			<circle class="st0" cx="339.6" cy="743.3" r="7.3"/>
			<circle class="st0" cx="360.8" cy="753" r="7.3"/>
			<circle class="st0" cx="355.2" cy="736.1" r="7.3"/>
			<circle class="st0" cx="376.4" cy="745.8" r="7.3"/>
			<circle class="st0" cx="211.1" cy="688.6" r="7.3"/>
			<circle class="st0" cx="232.4" cy="698.3" r="7.3"/>
			<circle class="st0" cx="226.8" cy="681.4" r="7.3"/>
			<circle class="st0" cx="248" cy="691.1" r="7.3"/>
			<circle class="st0" cx="201.3" cy="711.3" r="7.3"/>
			<circle class="st0" cx="222.5" cy="721" r="7.3"/>
			<circle class="st0" cx="216.9" cy="704" r="7.3"/>
			<circle class="st0" cx="238.1" cy="713.8" r="7.3"/>
			<circle class="st0" cx="263.6" cy="683.9" r="7.3"/>
			<circle class="st0" cx="284.8" cy="693.6" r="7.3"/>
			<circle class="st0" cx="279.2" cy="676.7" r="7.3"/>
			<circle class="st0" cx="300.5" cy="686.4" r="7.3"/>
			<circle class="st0" cx="253.7" cy="706.6" r="7.3"/>
			<circle class="st0" cx="274.9" cy="716.3" r="7.3"/>
			<circle class="st0" cx="269.4" cy="699.3" r="7.3"/>
			<circle class="st0" cx="290.6" cy="709.1" r="7.3"/>
			<circle class="st0" cx="191.4" cy="733.9" r="7.3"/>
			<circle class="st0" cx="212.6" cy="743.7" r="7.3"/>
			<circle class="st0" cx="207" cy="726.7" r="7.3"/>
			<circle class="st0" cx="228.2" cy="736.5" r="7.3"/>
			<circle class="st0" cx="181.5" cy="756.6" r="7.3"/>
			<circle class="st0" cx="202.7" cy="766.4" r="7.3"/>
			<circle class="st0" cx="197.1" cy="749.4" r="7.3"/>
			<circle class="st0" cx="218.3" cy="759.1" r="7.3"/>
			<circle class="st0" cx="243.9" cy="729.2" r="7.3"/>
			<circle class="st0" cx="265.1" cy="739" r="7.3"/>
			<circle class="st0" cx="259.5" cy="722" r="7.3"/>
			<circle class="st0" cx="280.7" cy="731.7" r="7.3"/>
			<circle class="st0" cx="234" cy="751.9" r="7.3"/>
			<circle class="st0" cx="255.2" cy="761.6" r="7.3"/>
			<circle class="st0" cx="249.6" cy="744.7" r="7.3"/>
			<circle class="st0" cx="270.8" cy="754.4" r="7.3"/>
			<circle class="st0" cx="114.1" cy="672.9" r="7.3"/>
			<circle class="st0" cx="135.3" cy="682.6" r="7.3"/>
			<circle class="st0" cx="129.7" cy="665.7" r="7.3"/>
			<circle class="st0" cx="151" cy="675.4" r="7.3"/>
			<circle class="st0" cx="104.2" cy="695.5" r="7.3"/>
			<circle class="st0" cx="125.5" cy="705.3" r="7.3"/>
			<circle class="st0" cx="119.9" cy="688.3" r="7.3"/>
			<circle class="st0" cx="141.1" cy="698.1" r="7.3"/>
			<circle class="st0" cx="166.6" cy="668.2" r="7.3"/>
			<circle class="st0" cx="187.8" cy="677.9" r="7.3"/>
			<circle class="st0" cx="182.2" cy="660.9" r="7.3"/>
			<circle class="st0" cx="203.4" cy="670.7" r="7.3"/>
			<circle class="st0" cx="156.7" cy="690.8" r="7.3"/>
			<circle class="st0" cx="177.9" cy="700.6" r="7.3"/>
			<circle class="st0" cx="172.3" cy="683.6" r="7.3"/>
			<circle class="st0" cx="193.6" cy="693.4" r="7.3"/>
			<circle class="st0" cx="94.4" cy="718.2" r="7.3"/>
			<circle class="st0" cx="115.6" cy="728" r="7.3"/>
			<circle class="st0" cx="110" cy="711" r="7.3"/>
			<circle class="st0" cx="131.2" cy="720.7" r="7.3"/>
			<circle class="st0" cx="84.5" cy="740.9" r="7.3"/>
			<circle class="st0" cx="105.7" cy="750.6" r="7.3"/>
			<circle class="st0" cx="100.1" cy="733.7" r="7.3"/>
			<circle class="st0" cx="121.3" cy="743.4" r="7.3"/>
			<circle class="st0" cx="146.8" cy="713.5" r="7.3"/>
			<circle class="st0" cx="168" cy="723.3" r="7.3"/>
			<circle class="st0" cx="162.5" cy="706.3" r="7.3"/>
			<circle class="st0" cx="183.7" cy="716" r="7.3"/>
			<circle class="st0" cx="136.9" cy="736.2" r="7.3"/>
			<circle class="st0" cx="158.2" cy="745.9" r="7.3"/>
			<circle class="st0" cx="152.6" cy="729" r="7.3"/>
			<circle class="st0" cx="173.8" cy="738.7" r="7.3"/>
			<circle class="st0" cx="8.5" cy="681.5" r="7.3"/>
			<circle class="st0" cx="29.7" cy="691.2" r="7.3"/>
			<circle class="st0" cx="24.2" cy="674.2" r="7.3"/>
			<circle class="st0" cx="45.4" cy="684" r="7.3"/>
			<circle class="st0" cx="-1.4" cy="704.1" r="7.3"/>
			<circle class="st0" cx="19.9" cy="713.9" r="7.3"/>
			<circle class="st0" cx="14.3" cy="696.9" r="7.3"/>
			<circle class="st0" cx="35.5" cy="706.7" r="7.3"/>
			<circle class="st0" cx="61" cy="676.8" r="7.3"/>
			<circle class="st0" cx="82.2" cy="686.5" r="7.3"/>
			<circle class="st0" cx="76.6" cy="669.5" r="7.3"/>
			<circle class="st0" cx="97.8" cy="679.3" r="7.3"/>
			<circle class="st0" cx="51.1" cy="699.4" r="7.3"/>
			<circle class="st0" cx="72.3" cy="709.2" r="7.3"/>
			<circle class="st0" cx="66.7" cy="692.2" r="7.3"/>
			<circle class="st0" cx="88" cy="701.9" r="7.3"/>
			<circle class="st0" cx="-11.2" cy="726.8" r="7.3"/>
			<circle class="st0" cx="10" cy="736.6" r="7.3"/>
			<circle class="st0" cx="4.4" cy="719.6" r="7.3"/>
			<circle class="st0" cx="25.6" cy="729.3" r="7.3"/>
			<circle class="st0" cx="-21.1" cy="749.5" r="7.3"/>
			<circle class="st0" cx="0.1" cy="759.2" r="7.3"/>
			<circle class="st0" cx="-5.5" cy="742.3" r="7.3"/>
			<circle class="st0" cx="15.7" cy="752" r="7.3"/>
			<circle class="st0" cx="41.2" cy="722.1" r="7.3"/>
			<circle class="st0" cx="62.4" cy="731.8" r="7.3"/>
			<circle class="st0" cx="56.9" cy="714.9" r="7.3"/>
			<circle class="st0" cx="78.1" cy="724.6" r="7.3"/>
			<circle class="st0" cx="31.4" cy="744.8" r="7.3"/>
			<circle class="st0" cx="52.6" cy="754.5" r="7.3"/>
			<circle class="st0" cx="47" cy="737.6" r="7.3"/>
			<circle class="st0" cx="68.2" cy="747.3" r="7.3"/>
			<circle class="st0" cx="-94.8" cy="689.6" r="7.3"/>
			<circle class="st0" cx="-73.6" cy="699.3" r="7.3"/>
			<circle class="st0" cx="-79.2" cy="682.4" r="7.3"/>
			<circle class="st0" cx="-57.9" cy="692.1" r="7.3"/>
			<circle class="st0" cx="-104.7" cy="712.2" r="7.3"/>
			<circle class="st0" cx="-83.5" cy="722" r="7.3"/>
			<circle class="st0" cx="-89" cy="705" r="7.3"/>
			<circle class="st0" cx="-67.8" cy="714.8" r="7.3"/>
			<circle class="st0" cx="-42.3" cy="684.9" r="7.3"/>
			<circle class="st0" cx="-21.1" cy="694.6" r="7.3"/>
			<circle class="st0" cx="-26.7" cy="677.6" r="7.3"/>
			<circle class="st0" cx="-5.5" cy="687.4" r="7.3"/>
			<circle class="st0" cx="-52.2" cy="707.5" r="7.3"/>
			<circle class="st0" cx="-31" cy="717.3" r="7.3"/>
			<circle class="st0" cx="-36.6" cy="700.3" r="7.3"/>
			<circle class="st0" cx="-15.4" cy="710.1" r="7.3"/>
			<circle class="st0" cx="-114.6" cy="734.9" r="7.3"/>
			<circle class="st0" cx="-93.3" cy="744.7" r="7.3"/>
			<circle class="st0" cx="-98.9" cy="727.7" r="7.3"/>
			<circle class="st0" cx="-77.7" cy="737.4" r="7.3"/>
			<circle class="st0" cx="692.8" cy="759.7" r="7.3"/>
			<circle class="st0" cx="-103.2" cy="767.3" r="7.3"/>
			<circle class="st0" cx="-108.8" cy="750.4" r="7.3"/>
			<circle class="st0" cx="-87.6" cy="760.1" r="7.3"/>
			<circle class="st0" cx="-62.1" cy="730.2" r="7.3"/>
			<circle class="st0" cx="-40.9" cy="739.9" r="7.3"/>
			<circle class="st0" cx="-46.5" cy="723" r="7.3"/>
			<circle class="st0" cx="-25.2" cy="732.7" r="7.3"/>
			<circle class="st0" cx="-72" cy="752.9" r="7.3"/>
			<circle class="st0" cx="-50.8" cy="762.6" r="7.3"/>
			<circle class="st0" cx="-56.3" cy="745.7" r="7.3"/>
			<circle class="st0" cx="-35.1" cy="755.4" r="7.3"/>
			<circle class="st0" cx="616.8" cy="700.2" r="7.3"/>
			<circle class="st0" cx="638" cy="710" r="7.3"/>
			<circle class="st0" cx="632.4" cy="693" r="7.3"/>
			<circle class="st0" cx="653.6" cy="702.8" r="7.3"/>
			<circle class="st0" cx="606.9" cy="722.9" r="7.3"/>
			<circle class="st0" cx="628.1" cy="732.7" r="7.3"/>
			<circle class="st0" cx="622.5" cy="715.7" r="7.3"/>
			<circle class="st0" cx="643.8" cy="725.4" r="7.3"/>
			<circle class="st0" cx="669.3" cy="695.5" r="7.3"/>
			<circle class="st0" cx="690.5" cy="705.3" r="7.3"/>
			<circle class="st0" cx="684.9" cy="688.3" r="7.3"/>
			<circle class="st0" cx="-111.1" cy="696" r="7.3"/>
			<circle class="st0" cx="659.4" cy="718.2" r="7.3"/>
			<circle class="st0" cx="680.6" cy="727.9" r="7.3"/>
			<circle class="st0" cx="675" cy="711" r="7.3"/>
			<circle class="st0" cx="-121" cy="718.6" r="7.3"/>
			<circle class="st0" cx="1080.4" cy="681.5" r="7.3"/>
			<circle class="st0" cx="1100.7" cy="691" r="7.3"/>
			<circle class="st0" cx="1096" cy="674.2" r="7.3"/>
			<circle class="st0" cx="1113.2" cy="681.7" r="7.3"/>
			<circle class="st0" cx="1070.5" cy="704.1" r="7.3"/>
			<circle class="st0" cx="1091.7" cy="713.9" r="7.3"/>
			<circle class="st0" cx="1086.1" cy="696.9" r="7.3"/>
			<circle class="st0" cx="1107.3" cy="706.7" r="7.3"/>
			<circle class="st0" cx="1120.5" cy="696.3" r="7.3"/>
			<circle class="st0" cx="1060.6" cy="726.8" r="7.3"/>
			<circle class="st0" cx="1081.8" cy="736.6" r="7.3"/>
			<circle class="st0" cx="1076.2" cy="719.6" r="7.3"/>
			<circle class="st0" cx="1097.4" cy="729.3" r="7.3"/>
			<circle class="st0" cx="1050.7" cy="749.5" r="7.3"/>
			<circle class="st0" cx="1071.9" cy="759.2" r="7.3"/>
			<circle class="st0" cx="1066.4" cy="742.3" r="7.3"/>
			<circle class="st0" cx="1087.6" cy="752" r="7.3"/>
			<circle class="st0" cx="1121.5" cy="716.1" r="7.3"/>
			<circle class="st0" cx="1103.2" cy="744.8" r="7.3"/>
			<circle class="st0" cx="1124.4" cy="754.5" r="7.3"/>
			<circle class="st0" cx="1114.2" cy="731.8" r="7.3"/>
			<circle class="st0" cx="977.1" cy="689.6" r="7.3"/>
			<circle class="st0" cx="998.3" cy="699.3" r="7.3"/>
			<circle class="st0" cx="992.7" cy="682.4" r="7.3"/>
			<circle class="st0" cx="1013.9" cy="692.1" r="7.3"/>
			<circle class="st0" cx="967.2" cy="712.2" r="7.3"/>
			<circle class="st0" cx="988.4" cy="722" r="7.3"/>
			<circle class="st0" cx="982.8" cy="705" r="7.3"/>
			<circle class="st0" cx="1004" cy="714.8" r="7.3"/>
			<circle class="st0" cx="1029.5" cy="684.9" r="7.3"/>
			<circle class="st0" cx="1050.7" cy="694.6" r="7.3"/>
			<circle class="st0" cx="1045.2" cy="677.6" r="7.3"/>
			<circle class="st0" cx="1066.4" cy="687.4" r="7.3"/>
			<circle class="st0" cx="1019.6" cy="707.5" r="7.3"/>
			<circle class="st0" cx="1040.9" cy="717.3" r="7.3"/>
			<circle class="st0" cx="1035.3" cy="700.3" r="7.3"/>
			<circle class="st0" cx="1056.5" cy="710.1" r="7.3"/>
			<circle class="st0" cx="957.3" cy="734.9" r="7.3"/>
			<circle class="st0" cx="978.5" cy="744.7" r="7.3"/>
			<circle class="st0" cx="972.9" cy="727.7" r="7.3"/>
			<circle class="st0" cx="994.1" cy="737.4" r="7.3"/>
			<circle class="st0" cx="968.6" cy="767.3" r="7.3"/>
			<circle class="st0" cx="963" cy="750.4" r="7.3"/>
			<circle class="st0" cx="984.3" cy="760.1" r="7.3"/>
			<circle class="st0" cx="1009.8" cy="730.2" r="7.3"/>
			<circle class="st0" cx="1031" cy="739.9" r="7.3"/>
			<circle class="st0" cx="1025.4" cy="723" r="7.3"/>
			<circle class="st0" cx="1046.6" cy="732.7" r="7.3"/>
			<circle class="st0" cx="999.9" cy="752.9" r="7.3"/>
			<circle class="st0" cx="1021.1" cy="762.6" r="7.3"/>
			<circle class="st0" cx="1015.5" cy="745.7" r="7.3"/>
			<circle class="st0" cx="1036.7" cy="755.4" r="7.3"/>
			<circle class="st0" cx="960.8" cy="696" r="7.3"/>
			<circle class="st0" cx="950.9" cy="718.6" r="7.3"/>
			<circle class="st0" cx="597" cy="745.6" r="7.3"/>
			<circle class="st0" cx="618.3" cy="755.3" r="7.3"/>
			<circle class="st0" cx="612.7" cy="738.4" r="7.3"/>
			<circle class="st0" cx="633.9" cy="748.1" r="7.3"/>
			<circle class="st0" cx="587.2" cy="768.3" r="7.3"/>
			<circle class="st0" cx="608.4" cy="778" r="7.3"/>
			<circle class="st0" cx="602.8" cy="761.1" r="7.3"/>
			<circle class="st0" cx="624" cy="770.8" r="7.3"/>
			<circle class="st0" cx="649.5" cy="740.9" r="7.3"/>
			<circle class="st0" cx="670.7" cy="750.6" r="7.3"/>
			<circle class="st0" cx="665.1" cy="733.7" r="7.3"/>
			<circle class="st0" cx="686.4" cy="743.4" r="7.3"/>
			<circle class="st0" cx="639.6" cy="763.6" r="7.3"/>
			<circle class="st0" cx="660.8" cy="773.3" r="7.3"/>
			<circle class="st0" cx="655.3" cy="756.4" r="7.3"/>
			<circle class="st0" cx="676.5" cy="766.1" r="7.3"/>
			<circle class="st0" cx="519.8" cy="684.5" r="7.3"/>
			<circle class="st0" cx="541" cy="694.3" r="7.3"/>
			<circle class="st0" cx="535.4" cy="677.3" r="7.3"/>
			<circle class="st0" cx="556.6" cy="687" r="7.3"/>
			<circle class="st0" cx="509.9" cy="707.2" r="7.3"/>
			<circle class="st0" cx="531.1" cy="716.9" r="7.3"/>
			<circle class="st0" cx="525.5" cy="700" r="7.3"/>
			<circle class="st0" cx="546.7" cy="709.7" r="7.3"/>
			<circle class="st0" cx="572.2" cy="679.8" r="7.3"/>
			<circle class="st0" cx="593.5" cy="689.6" r="7.3"/>
			<circle class="st0" cx="587.9" cy="672.6" r="7.3"/>
			<circle class="st0" cx="609.1" cy="682.3" r="7.3"/>
			<circle class="st0" cx="562.4" cy="702.5" r="7.3"/>
			<circle class="st0" cx="583.6" cy="712.2" r="7.3"/>
			<circle class="st0" cx="578" cy="695.3" r="7.3"/>
			<circle class="st0" cx="599.2" cy="705" r="7.3"/>
			<circle class="st0" cx="500" cy="729.9" r="7.3"/>
			<circle class="st0" cx="521.2" cy="739.6" r="7.3"/>
			<circle class="st0" cx="515.6" cy="722.7" r="7.3"/>
			<circle class="st0" cx="536.9" cy="732.4" r="7.3"/>
			<circle class="st0" cx="490.1" cy="752.6" r="7.3"/>
			<circle class="st0" cx="511.3" cy="762.3" r="7.3"/>
			<circle class="st0" cx="505.8" cy="745.4" r="7.3"/>
			<circle class="st0" cx="527" cy="755.1" r="7.3"/>
			<circle class="st0" cx="552.5" cy="725.2" r="7.3"/>
			<circle class="st0" cx="573.7" cy="734.9" r="7.3"/>
			<circle class="st0" cx="568.1" cy="718" r="7.3"/>
			<circle class="st0" cx="589.3" cy="727.7" r="7.3"/>
			<circle class="st0" cx="542.6" cy="747.9" r="7.3"/>
			<circle class="st0" cx="563.8" cy="757.6" r="7.3"/>
			<circle class="st0" cx="558.2" cy="740.7" r="7.3"/>
			<circle class="st0" cx="579.4" cy="750.4" r="7.3"/>
			<circle class="st0" cx="414.2" cy="693.1" r="7.3"/>
			<circle class="st0" cx="435.4" cy="702.9" r="7.3"/>
			<circle class="st0" cx="429.8" cy="685.9" r="7.3"/>
			<circle class="st0" cx="451" cy="695.6" r="7.3"/>
			<circle class="st0" cx="404.3" cy="715.8" r="7.3"/>
			<circle class="st0" cx="425.5" cy="725.5" r="7.3"/>
			<circle class="st0" cx="419.9" cy="708.6" r="7.3"/>
			<circle class="st0" cx="441.1" cy="718.3" r="7.3"/>
			<circle class="st0" cx="466.7" cy="688.4" r="7.3"/>
			<circle class="st0" cx="487.9" cy="698.1" r="7.3"/>
			<circle class="st0" cx="482.3" cy="681.2" r="7.3"/>
			<circle class="st0" cx="503.5" cy="690.9" r="7.3"/>
			<circle class="st0" cx="456.8" cy="711.1" r="7.3"/>
			<circle class="st0" cx="478" cy="720.8" r="7.3"/>
			<circle class="st0" cx="472.4" cy="703.9" r="7.3"/>
			<circle class="st0" cx="493.6" cy="713.6" r="7.3"/>
			<circle class="st0" cx="394.4" cy="738.5" r="7.3"/>
			<circle class="st0" cx="415.6" cy="748.2" r="7.3"/>
			<circle class="st0" cx="410" cy="731.3" r="7.3"/>
			<circle class="st0" cx="431.3" cy="741" r="7.3"/>
			<circle class="st0" cx="384.5" cy="761.2" r="7.3"/>
			<circle class="st0" cx="405.8" cy="770.9" r="7.3"/>
			<circle class="st0" cx="400.2" cy="754" r="7.3"/>
			<circle class="st0" cx="421.4" cy="763.7" r="7.3"/>
			<circle class="st0" cx="446.9" cy="733.8" r="7.3"/>
			<circle class="st0" cx="468.1" cy="743.5" r="7.3"/>
			<circle class="st0" cx="462.5" cy="726.6" r="7.3"/>
			<circle class="st0" cx="483.7" cy="736.3" r="7.3"/>
			<circle class="st0" cx="437" cy="756.5" r="7.3"/>
			<circle class="st0" cx="458.2" cy="766.2" r="7.3"/>
			<circle class="st0" cx="452.6" cy="749.3" r="7.3"/>
			<circle class="st0" cx="473.9" cy="759" r="7.3"/>
			<circle class="st0" cx="946.4" cy="759.7" r="7.3"/>
			<circle class="st0" cx="870.4" cy="700.2" r="7.3"/>
			<circle class="st0" cx="891.6" cy="710" r="7.3"/>
			<circle class="st0" cx="886" cy="693" r="7.3"/>
			<circle class="st0" cx="907.3" cy="702.8" r="7.3"/>
			<circle class="st0" cx="860.5" cy="722.9" r="7.3"/>
			<circle class="st0" cx="881.7" cy="732.7" r="7.3"/>
			<circle class="st0" cx="876.2" cy="715.7" r="7.3"/>
			<circle class="st0" cx="897.4" cy="725.4" r="7.3"/>
			<circle class="st0" cx="922.9" cy="695.5" r="7.3"/>
			<circle class="st0" cx="944.1" cy="705.3" r="7.3"/>
			<circle class="st0" cx="938.5" cy="688.3" r="7.3"/>
			<circle class="st0" cx="913" cy="718.2" r="7.3"/>
			<circle class="st0" cx="934.2" cy="727.9" r="7.3"/>
			<circle class="st0" cx="928.6" cy="711" r="7.3"/>
			<circle class="st0" cx="850.6" cy="745.6" r="7.3"/>
			<circle class="st0" cx="871.9" cy="755.3" r="7.3"/>
			<circle class="st0" cx="866.3" cy="738.4" r="7.3"/>
			<circle class="st0" cx="887.5" cy="748.1" r="7.3"/>
			<circle class="st0" cx="840.8" cy="768.3" r="7.3"/>
			<circle class="st0" cx="862" cy="778" r="7.3"/>
			<circle class="st0" cx="856.4" cy="761.1" r="7.3"/>
			<circle class="st0" cx="877.6" cy="770.8" r="7.3"/>
			<circle class="st0" cx="903.1" cy="740.9" r="7.3"/>
			<circle class="st0" cx="924.3" cy="750.6" r="7.3"/>
			<circle class="st0" cx="918.7" cy="733.7" r="7.3"/>
			<circle class="st0" cx="940" cy="743.4" r="7.3"/>
			<circle class="st0" cx="893.2" cy="763.6" r="7.3"/>
			<circle class="st0" cx="914.5" cy="773.3" r="7.3"/>
			<circle class="st0" cx="908.9" cy="756.4" r="7.3"/>
			<circle class="st0" cx="930.1" cy="766.1" r="7.3"/>
			<circle class="st0" cx="773.4" cy="684.5" r="7.3"/>
			<circle class="st0" cx="794.6" cy="694.3" r="7.3"/>
			<circle class="st0" cx="789" cy="677.3" r="7.3"/>
			<circle class="st0" cx="810.2" cy="687" r="7.3"/>
			<circle class="st0" cx="763.5" cy="707.2" r="7.3"/>
			<circle class="st0" cx="784.7" cy="716.9" r="7.3"/>
			<circle class="st0" cx="779.1" cy="700" r="7.3"/>
			<circle class="st0" cx="800.3" cy="709.7" r="7.3"/>
			<circle class="st0" cx="825.9" cy="679.8" r="7.3"/>
			<circle class="st0" cx="847.1" cy="689.6" r="7.3"/>
			<circle class="st0" cx="841.5" cy="672.6" r="7.3"/>
			<circle class="st0" cx="862.7" cy="682.3" r="7.3"/>
			<circle class="st0" cx="816" cy="702.5" r="7.3"/>
			<circle class="st0" cx="837.2" cy="712.2" r="7.3"/>
			<circle class="st0" cx="831.6" cy="695.3" r="7.3"/>
			<circle class="st0" cx="852.8" cy="705" r="7.3"/>
			<circle class="st0" cx="753.6" cy="729.9" r="7.3"/>
			<circle class="st0" cx="774.8" cy="739.6" r="7.3"/>
			<circle class="st0" cx="769.3" cy="722.7" r="7.3"/>
			<circle class="st0" cx="790.5" cy="732.4" r="7.3"/>
			<circle class="st0" cx="743.7" cy="752.6" r="7.3"/>
			<circle class="st0" cx="765" cy="762.3" r="7.3"/>
			<circle class="st0" cx="759.4" cy="745.4" r="7.3"/>
			<circle class="st0" cx="780.6" cy="755.1" r="7.3"/>
			<circle class="st0" cx="806.1" cy="725.2" r="7.3"/>
			<circle class="st0" cx="827.3" cy="734.9" r="7.3"/>
			<circle class="st0" cx="821.7" cy="718" r="7.3"/>
			<circle class="st0" cx="842.9" cy="727.7" r="7.3"/>
			<circle class="st0" cx="796.2" cy="747.9" r="7.3"/>
			<circle class="st0" cx="817.4" cy="757.6" r="7.3"/>
			<circle class="st0" cx="811.8" cy="740.7" r="7.3"/>
			<circle class="st0" cx="833.1" cy="750.4" r="7.3"/>
			<circle class="st0" cx="704.6" cy="695.6" r="7.3"/>
			<circle class="st0" cx="694.8" cy="718.3" r="7.3"/>
			<circle class="st0" cx="720.3" cy="688.4" r="7.3"/>
			<circle class="st0" cx="741.5" cy="698.1" r="7.3"/>
			<circle class="st0" cx="735.9" cy="681.2" r="7.3"/>
			<circle class="st0" cx="757.1" cy="690.9" r="7.3"/>
			<circle class="st0" cx="710.4" cy="711.1" r="7.3"/>
			<circle class="st0" cx="731.6" cy="720.8" r="7.3"/>
			<circle class="st0" cx="726" cy="703.9" r="7.3"/>
			<circle class="st0" cx="747.2" cy="713.6" r="7.3"/>
			<circle class="st0" cx="700.5" cy="733.8" r="7.3"/>
			<circle class="st0" cx="721.7" cy="743.5" r="7.3"/>
			<circle class="st0" cx="716.1" cy="726.6" r="7.3"/>
			<circle class="st0" cx="737.3" cy="736.3" r="7.3"/>
			<circle class="st0" cx="711.8" cy="766.2" r="7.3"/>
			<circle class="st0" cx="706.2" cy="749.3" r="7.3"/>
			<circle class="st0" cx="727.5" cy="759" r="7.3"/>
		</g>
		<polygon class="st1" points="1057.2,696.6 11.2,696.6 152.2,336.9 1238.1,11.4 		"/>
		<g>
			<defs>
				<polygon id="SVGID_3_" points="1057.2,696.6 11.2,696.6 152.2,336.9 1238.1,11.4 				"/>
			</defs>
			<clipPath id="SVGID_4_">
				<use xlink:href="#SVGID_3_"  style="overflow:visible;"/>
			</clipPath>
			<polygon class="st2" points="70.2,627.2 85.6,582.9 184,617.3 168.7,661.5 			"/>
			<polygon class="st2" points="178.8,770.4 156.3,729.4 247.7,679.2 270.2,720.2 			"/>
			<polygon class="st2" points="235.9,475.6 220.5,431.4 318.9,396.9 334.3,441.2 			"/>
			
				<rect x="-30.9" y="563.2" transform="matrix(-8.457752e-02 0.9964 -0.9964 -8.457752e-02 604.9573 674.7478)" class="st2" width="46.8" height="104.2"/>
			<polygon class="st2" points="54.3,466.3 68.2,421.6 167.7,452.5 153.9,497.3 			"/>
			<polygon class="st2" points="273.2,607.1 311.2,579.8 371.8,664.8 333.8,692.1 			"/>
			<polygon class="st2" points="491.1,427.1 516.9,388.1 603.8,445.7 578,484.8 			"/>
			
				<rect x="498.2" y="651.5" transform="matrix(-8.457752e-02 0.9964 -0.9964 -8.457752e-02 1266.854 243.3061)" class="st2" width="46.8" height="104.2"/>
			<polygon class="st2" points="405.3,544.8 419.2,500 518.7,531 504.8,575.8 			"/>
			<polygon class="st2" points="375.6,379.5 353.1,338.4 444.5,288.2 467,329.3 			"/>
			<polygon class="st2" points="233.4,351.4 205.1,314.1 288.1,250.9 316.4,288.2 			"/>
			<polygon class="st2" points="556.8,172.9 583.9,134.8 668.8,195.4 641.7,233.5 			"/>
			<polygon class="st2" points="561.5,333.3 539.5,292 631.5,242.9 653.5,284.3 			"/>
			<polygon class="st2" points="413.4,262.8 398,218.6 496.4,184.2 511.8,228.4 			"/>
			<polygon class="st2" points="736.9,208.3 708.6,171 791.6,107.8 819.8,145.1 			"/>
			<polygon class="st2" points="45.7,401.8 31.8,357.1 131.3,326 145.2,370.8 			"/>
			<polygon class="st2" points="738.5,613 753.9,568.8 852.3,603.1 836.9,647.4 			"/>
			<polygon class="st2" points="870.3,735.3 847.8,694.2 939.2,644 961.7,685 			"/>
			<polygon class="st2" points="681,761 659.1,719.7 751.1,670.6 773.1,711.9 			"/>
			<polygon class="st2" points="868.4,582 840.1,544.7 923.1,481.5 951.4,518.8 			"/>
			
				<rect x="606.4" y="546.8" transform="matrix(-8.457752e-02 0.9964 -0.9964 -8.457752e-02 1279.8888 21.9547)" class="st2" width="46.8" height="104.2"/>
			<polygon class="st2" points="722.6,452.1 736.5,407.4 836,438.4 822.1,483.1 			"/>
			<polygon class="st2" points="1000.7,537.5 1027.8,499.4 1112.6,560 1085.5,598.2 			"/>
			<polygon class="st2" points="1021,764.2 999,722.8 1091,673.7 1113,715.1 			"/>
			<polygon class="st2" points="1027.1,399.9 1041,355.2 1140.5,386.2 1126.7,430.9 			"/>
			<polygon class="st2" points="999.4,228.7 1014.8,184.5 1113.2,218.8 1097.9,263 			"/>
			<polygon class="st2" points="877.9,370 855.9,328.7 947.9,279.6 969.9,321 			"/>
			<polygon class="st2" points="1101,70.5 1085.6,26.3 1184,-8.2 1199.4,36 			"/>
			<polygon class="st2" points="908.4,90 922.2,45.2 1021.8,76.2 1007.9,121 			"/>
			<polygon class="st2" points="1173.1,122.2 1200.3,84 1285.1,144.7 1258,182.8 			"/>
			<polygon class="st2" points="1138.3,201.9 1176.3,174.7 1236.9,259.7 1198.9,286.9 			"/>
			<g class="st3">
				<path class="st4" d="M245.5,45.8"/>
			</g>
		</g>
		<polygon class="st5" points="1057.2,696.6 11.2,696.6 152.2,336.9 1238.1,11.4 		"/>
		<polygon class="st6" points="11.3,696.4 11.5,696.6 1057.2,696.6 1237.5,13.6 1029.2,669.3 21.2,687.3 11.4,696.3 		"/>
		<g>
			<path class="st7" d="M291.9,785.6c-95,0-132.8-42.4-132.8-134.2V485.7h89v165.6c0,47,10.1,60.9,43.8,60.9
				c34.1,0,43.8-13.8,43.8-60.9V485.7h89.5v165.6C425.2,743.1,387.4,785.6,291.9,785.6z"/>
			<path class="st7" d="M590.8,695.6h-27.2v85.3H475V485.7h112.1c119,0,128.7,60.4,128.7,105.6C715.8,636.1,709.4,695.6,590.8,695.6
				z M589.4,556.3h-25.8v70.6h25.8c29.5,0,36.9-17.1,36.9-35.5C626.3,572.5,618.5,556.3,589.4,556.3z"/>
			<path class="st7" d="M424.8,211.6v51.2h118.1v67.8H424.8v105.6h-88.1V141h215.9v70.6H424.8z"/>
			<path class="st7" d="M586.7,436.2V141h219.1v70.6h-131V254h117.6v64.1H674.8v47.5h131v70.6H586.7z"/>
			<path class="st7" d="M962.1,436.2H848.2V141h118.5c95,0,139.8,56.7,139.8,145.8C1106.5,375.3,1058.5,436.2,962.1,436.2z
				 M952.9,211.6h-16.1v154.1h14.3c42.9,0,68.3-11.1,68.3-79.3C1019.3,219.4,996.3,211.6,952.9,211.6z"/>
			<polygon class="st7" points="892.4,486.1 765.2,551.2 765.2,644 848.4,601.9 848.4,781.3 936.5,781.3 936.5,601.9 1019.6,644 
				1019.6,551.2 			"/>
		</g>
		<g>
			<path class="st8" d="M284.9,775.6c-95,0-132.8-42.4-132.8-134.2V475.7h89v165.6c0,47,10.1,60.9,43.8,60.9
				c34.1,0,43.8-13.8,43.8-60.9V475.7h89.5v165.6C418.2,733.1,380.4,775.6,284.9,775.6z"/>
			<path class="st8" d="M583.8,685.6h-27.2v85.3H468V475.7h112.1c119,0,128.7,60.4,128.7,105.6C708.8,626.1,702.4,685.6,583.8,685.6
				z M582.4,546.3h-25.8v70.6h25.8c29.5,0,36.9-17.1,36.9-35.5C619.3,562.5,611.5,546.3,582.4,546.3z"/>
			<path class="st8" d="M417.8,201.6v51.2h118.1v67.8H417.8v105.6h-88.1V131h215.9v70.6H417.8z"/>
			<path class="st8" d="M579.7,426.2V131h219.1v70.6h-131V244h117.6v64.1H667.8v47.5h131v70.6H579.7z"/>
			<path class="st8" d="M955.1,426.2H841.2V131h118.5c95,0,139.8,56.7,139.8,145.8C1099.5,365.3,1051.5,426.2,955.1,426.2z
				 M945.9,201.6h-16.1v154.1h14.3c42.9,0,68.3-11.1,68.3-79.3C1012.3,209.4,989.3,201.6,945.9,201.6z"/>
		</g>
		<g>
			<polygon class="st9" points="1012.3,541.1 1012.3,633.8 1012.6,634 1012.6,541.2 			"/>
		</g>
		<g>
			<polygon class="st8" points="885.4,476.1 758.2,541.2 758.2,634 841.4,591.9 841.4,687.3 929.5,687.3 929.5,591.9 1012.6,634 
				1012.6,541.2 			"/>
			<polyline class="st8" points="929.5,730 929.5,708 841.4,708 841.4,730 885.4,730 885.4,730 885.4,730 			"/>
			<polyline class="st8" points="929.5,769.9 929.5,736.5 841.4,736.5 841.4,769.9 885.4,769.9 885.4,769.9 885.4,769.9 			"/>
			<polygon class="st8" points="841.4,687.3 841.4,701.1 885.4,701.1 885.4,701.1 885.4,701.1 929.5,701.1 929.5,687.3 			"/>
		</g>
	</g>
</g>
<g id="Layer_4">
</g>
<g id="Layer_9">
</g>
<g id="Layer_8">
</g>
<g id="Layer_3">
</g>
<g id="Layer_6">
</g>
<g id="Layer_5">
</g>
</svg>
