<?xml version="1.0" encoding="utf-8"?>
<svg version="1.1" xmlns="http://www.w3.org/2000/svg" xmlns:xlink="http://www.w3.org/1999/xlink" x="0px" y="0px"
	 viewBox="0 0 1500 1500" style="enable-background:new 0 0 1500 1500;" xml:space="preserve">
<style type="text/css">
	.st0{clip-path:url(#SVGID_2_);fill:#53387A;}
	.st1{fill:#00CEC1;}
	.st2{clip-path:url(#SVGID_4_);fill:#FFBDE1;}
	.st3{clip-path:url(#SVGID_4_);}
	.st4{fill:#FFBDE1;}
	.st5{fill:none;stroke:#53387A;stroke-width:11;stroke-miterlimit:10;}
	.st6{fill:#53387A;}
	.st7{fill:#BC7FD3;}
	.st8{fill:#FFE33B;}
	.st9{fill:#FDDA50;}
	.st10{fill:#F5E700;}
	.st11{fill:#3FBDEC;}
	.st12{fill:#0082C3;}
</style>
<g id="Layer_2">
</g>
<g id="Layer_1">
</g>
<g id="bg">
	<g>
		<defs>
			<polygon id="SVGID_1_" points="1373.6,344.4 1188.3,1039 132.6,1039 154.7,1047.4 1236.5,1067 1384.5,369.2 			"/>
		</defs>
		<clipPath id="SVGID_2_">
			<use xlink:href="#SVGID_1_"  style="overflow:visible;"/>
		</clipPath>
		<circle class="st0" cx="1382.8" cy="268.4" r="7.3"/>
		<circle class="st0" cx="1398.1" cy="250.8" r="7.3"/>
		<circle class="st0" cx="1380.3" cy="251.4" r="7.3"/>
		<circle class="st0" cx="1395.6" cy="233.7" r="7.3"/>
		<circle class="st0" cx="1401.8" cy="284.3" r="7.3"/>
		<circle class="st0" cx="1417.1" cy="266.6" r="7.3"/>
		<circle class="st0" cx="1399.3" cy="267.2" r="7.3"/>
		<circle class="st0" cx="1414.6" cy="249.6" r="7.3"/>
		<circle class="st0" cx="1393" cy="216.7" r="7.3"/>
		<circle class="st0" cx="1408.3" cy="199.1" r="7.3"/>
		<circle class="st0" cx="1390.5" cy="199.7" r="7.3"/>
		<circle class="st0" cx="1405.8" cy="182.1" r="7.3"/>
		<circle class="st0" cx="1412" cy="232.6" r="7.3"/>
		<circle class="st0" cx="1427.3" cy="214.9" r="7.3"/>
		<circle class="st0" cx="1409.5" cy="215.5" r="7.3"/>
		<circle class="st0" cx="1424.8" cy="197.9" r="7.3"/>
		<circle class="st0" cx="1420.8" cy="300.1" r="7.3"/>
		<circle class="st0" cx="1436.1" cy="282.5" r="7.3"/>
		<circle class="st0" cx="1418.3" cy="283.1" r="7.3"/>
		<circle class="st0" cx="1433.6" cy="265.4" r="7.3"/>
		<circle class="st0" cx="1439.8" cy="315.9" r="7.3"/>
		<circle class="st0" cx="1455.1" cy="298.3" r="7.3"/>
		<circle class="st0" cx="1437.3" cy="298.9" r="7.3"/>
		<circle class="st0" cx="1452.6" cy="281.3" r="7.3"/>
		<circle class="st0" cx="1431" cy="248.4" r="7.3"/>
		<circle class="st0" cx="1446.3" cy="230.8" r="7.3"/>
		<circle class="st0" cx="1428.5" cy="231.4" r="7.3"/>
		<circle class="st0" cx="1443.8" cy="213.8" r="7.3"/>
		<circle class="st0" cx="1450" cy="264.3" r="7.3"/>
		<circle class="st0" cx="1465.3" cy="246.6" r="7.3"/>
		<circle class="st0" cx="1447.5" cy="247.2" r="7.3"/>
		<circle class="st0" cx="1462.8" cy="229.6" r="7.3"/>
		<circle class="st0" cx="1361.4" cy="372.2" r="7.3"/>
		<circle class="st0" cx="1376.7" cy="354.5" r="7.3"/>
		<circle class="st0" cx="1358.9" cy="355.1" r="7.3"/>
		<circle class="st0" cx="1374.2" cy="337.5" r="7.3"/>
		<circle class="st0" cx="1380.4" cy="388" r="7.3"/>
		<circle class="st0" cx="1395.7" cy="370.4" r="7.3"/>
		<circle class="st0" cx="1377.9" cy="371" r="7.3"/>
		<circle class="st0" cx="1393.2" cy="353.4" r="7.3"/>
		<circle class="st0" cx="1371.7" cy="320.5" r="7.3"/>
		<circle class="st0" cx="1386.9" cy="302.9" r="7.3"/>
		<circle class="st0" cx="1369.1" cy="303.5" r="7.3"/>
		<circle class="st0" cx="1384.4" cy="285.8" r="7.3"/>
		<circle class="st0" cx="1390.7" cy="336.3" r="7.3"/>
		<circle class="st0" cx="1405.9" cy="318.7" r="7.3"/>
		<circle class="st0" cx="1388.1" cy="319.3" r="7.3"/>
		<circle class="st0" cx="1403.4" cy="301.7" r="7.3"/>
		<circle class="st0" cx="1399.4" cy="403.9" r="7.3"/>
		<circle class="st0" cx="1414.7" cy="386.2" r="7.3"/>
		<circle class="st0" cx="1396.9" cy="386.8" r="7.3"/>
		<circle class="st0" cx="1412.2" cy="369.2" r="7.3"/>
		<circle class="st0" cx="1418.4" cy="419.7" r="7.3"/>
		<circle class="st0" cx="1433.7" cy="402.1" r="7.3"/>
		<circle class="st0" cx="1415.9" cy="402.7" r="7.3"/>
		<circle class="st0" cx="1431.2" cy="385.1" r="7.3"/>
		<circle class="st0" cx="1409.7" cy="352.2" r="7.3"/>
		<circle class="st0" cx="1424.9" cy="334.5" r="7.3"/>
		<circle class="st0" cx="1407.1" cy="335.2" r="7.3"/>
		<circle class="st0" cx="1422.4" cy="317.5" r="7.3"/>
		<circle class="st0" cx="1428.7" cy="368" r="7.3"/>
		<circle class="st0" cx="1443.9" cy="350.4" r="7.3"/>
		<circle class="st0" cx="1426.1" cy="351" r="7.3"/>
		<circle class="st0" cx="1441.4" cy="333.4" r="7.3"/>
		<circle class="st0" cx="1319.2" cy="460.9" r="7.3"/>
		<circle class="st0" cx="1334.4" cy="443.3" r="7.3"/>
		<circle class="st0" cx="1316.6" cy="443.9" r="7.3"/>
		<circle class="st0" cx="1331.9" cy="426.2" r="7.3"/>
		<circle class="st0" cx="1338.2" cy="476.7" r="7.3"/>
		<circle class="st0" cx="1353.4" cy="459.1" r="7.3"/>
		<circle class="st0" cx="1335.6" cy="459.7" r="7.3"/>
		<circle class="st0" cx="1350.9" cy="442.1" r="7.3"/>
		<circle class="st0" cx="1329.4" cy="409.2" r="7.3"/>
		<circle class="st0" cx="1344.6" cy="391.6" r="7.3"/>
		<circle class="st0" cx="1326.8" cy="392.2" r="7.3"/>
		<circle class="st0" cx="1342.1" cy="374.5" r="7.3"/>
		<circle class="st0" cx="1348.4" cy="425.1" r="7.3"/>
		<circle class="st0" cx="1363.6" cy="407.4" r="7.3"/>
		<circle class="st0" cx="1345.8" cy="408" r="7.3"/>
		<circle class="st0" cx="1361.1" cy="390.4" r="7.3"/>
		<circle class="st0" cx="1357.1" cy="492.6" r="7.3"/>
		<circle class="st0" cx="1372.4" cy="475" r="7.3"/>
		<circle class="st0" cx="1354.6" cy="475.6" r="7.3"/>
		<circle class="st0" cx="1369.9" cy="457.9" r="7.3"/>
		<circle class="st0" cx="1376.1" cy="508.4" r="7.3"/>
		<circle class="st0" cx="1391.4" cy="490.8" r="7.3"/>
		<circle class="st0" cx="1373.6" cy="491.4" r="7.3"/>
		<circle class="st0" cx="1388.9" cy="473.8" r="7.3"/>
		<circle class="st0" cx="1367.4" cy="440.9" r="7.3"/>
		<circle class="st0" cx="1382.6" cy="423.3" r="7.3"/>
		<circle class="st0" cx="1364.8" cy="423.9" r="7.3"/>
		<circle class="st0" cx="1380.1" cy="406.2" r="7.3"/>
		<circle class="st0" cx="1386.4" cy="456.8" r="7.3"/>
		<circle class="st0" cx="1401.6" cy="439.1" r="7.3"/>
		<circle class="st0" cx="1383.8" cy="439.7" r="7.3"/>
		<circle class="st0" cx="1399.1" cy="422.1" r="7.3"/>
		<circle class="st0" cx="1297.8" cy="564.7" r="7.3"/>
		<circle class="st0" cx="1313.1" cy="547" r="7.3"/>
		<circle class="st0" cx="1295.2" cy="547.6" r="7.3"/>
		<circle class="st0" cx="1310.5" cy="530" r="7.3"/>
		<circle class="st0" cx="1316.8" cy="580.5" r="7.3"/>
		<circle class="st0" cx="1332.1" cy="562.9" r="7.3"/>
		<circle class="st0" cx="1314.2" cy="563.5" r="7.3"/>
		<circle class="st0" cx="1329.5" cy="545.8" r="7.3"/>
		<circle class="st0" cx="1308" cy="513" r="7.3"/>
		<circle class="st0" cx="1323.3" cy="495.3" r="7.3"/>
		<circle class="st0" cx="1305.4" cy="496" r="7.3"/>
		<circle class="st0" cx="1320.7" cy="478.3" r="7.3"/>
		<circle class="st0" cx="1327" cy="528.8" r="7.3"/>
		<circle class="st0" cx="1342.3" cy="511.2" r="7.3"/>
		<circle class="st0" cx="1324.4" cy="511.8" r="7.3"/>
		<circle class="st0" cx="1339.7" cy="494.2" r="7.3"/>
		<circle class="st0" cx="1335.8" cy="596.4" r="7.3"/>
		<circle class="st0" cx="1351.1" cy="578.7" r="7.3"/>
		<circle class="st0" cx="1333.2" cy="579.3" r="7.3"/>
		<circle class="st0" cx="1348.5" cy="561.7" r="7.3"/>
		<circle class="st0" cx="1354.8" cy="612.2" r="7.3"/>
		<circle class="st0" cx="1370.1" cy="594.6" r="7.3"/>
		<circle class="st0" cx="1352.2" cy="595.2" r="7.3"/>
		<circle class="st0" cx="1367.5" cy="577.5" r="7.3"/>
		<circle class="st0" cx="1346" cy="544.7" r="7.3"/>
		<circle class="st0" cx="1361.3" cy="527" r="7.3"/>
		<circle class="st0" cx="1343.4" cy="527.6" r="7.3"/>
		<circle class="st0" cx="1358.7" cy="510" r="7.3"/>
		<circle class="st0" cx="1365" cy="560.5" r="7.3"/>
		<circle class="st0" cx="1380.3" cy="542.9" r="7.3"/>
		<circle class="st0" cx="1362.4" cy="543.5" r="7.3"/>
		<circle class="st0" cx="1377.7" cy="525.9" r="7.3"/>
		<circle class="st0" cx="1276.6" cy="666.1" r="7.3"/>
		<circle class="st0" cx="1291.9" cy="648.5" r="7.3"/>
		<circle class="st0" cx="1274" cy="649.1" r="7.3"/>
		<circle class="st0" cx="1289.3" cy="631.4" r="7.3"/>
		<circle class="st0" cx="1295.6" cy="682" r="7.3"/>
		<circle class="st0" cx="1310.9" cy="664.3" r="7.3"/>
		<circle class="st0" cx="1293" cy="664.9" r="7.3"/>
		<circle class="st0" cx="1308.3" cy="647.3" r="7.3"/>
		<circle class="st0" cx="1286.8" cy="614.4" r="7.3"/>
		<circle class="st0" cx="1302.1" cy="596.8" r="7.3"/>
		<circle class="st0" cx="1284.2" cy="597.4" r="7.3"/>
		<circle class="st0" cx="1299.5" cy="579.8" r="7.3"/>
		<circle class="st0" cx="1305.8" cy="630.3" r="7.3"/>
		<circle class="st0" cx="1321.1" cy="612.6" r="7.3"/>
		<circle class="st0" cx="1303.2" cy="613.2" r="7.3"/>
		<circle class="st0" cx="1318.5" cy="595.6" r="7.3"/>
		<circle class="st0" cx="1314.6" cy="697.8" r="7.3"/>
		<circle class="st0" cx="1329.9" cy="680.2" r="7.3"/>
		<circle class="st0" cx="1312" cy="680.8" r="7.3"/>
		<circle class="st0" cx="1327.3" cy="663.1" r="7.3"/>
		<circle class="st0" cx="1333.6" cy="713.6" r="7.3"/>
		<circle class="st0" cx="1348.9" cy="696" r="7.3"/>
		<circle class="st0" cx="1331" cy="696.6" r="7.3"/>
		<circle class="st0" cx="1346.3" cy="679" r="7.3"/>
		<circle class="st0" cx="1324.8" cy="646.1" r="7.3"/>
		<circle class="st0" cx="1340.1" cy="628.5" r="7.3"/>
		<circle class="st0" cx="1322.2" cy="629.1" r="7.3"/>
		<circle class="st0" cx="1337.5" cy="611.5" r="7.3"/>
		<circle class="st0" cx="1343.8" cy="662" r="7.3"/>
		<circle class="st0" cx="1359.1" cy="644.3" r="7.3"/>
		<circle class="st0" cx="1341.2" cy="644.9" r="7.3"/>
		<circle class="st0" cx="1356.5" cy="627.3" r="7.3"/>
		<circle class="st0" cx="1255.2" cy="769.9" r="7.3"/>
		<circle class="st0" cx="1270.5" cy="752.2" r="7.3"/>
		<circle class="st0" cx="1252.7" cy="752.8" r="7.3"/>
		<circle class="st0" cx="1267.9" cy="735.2" r="7.3"/>
		<circle class="st0" cx="1274.2" cy="785.7" r="7.3"/>
		<circle class="st0" cx="1289.5" cy="768.1" r="7.3"/>
		<circle class="st0" cx="1271.7" cy="768.7" r="7.3"/>
		<circle class="st0" cx="1286.9" cy="751.1" r="7.3"/>
		<circle class="st0" cx="1265.4" cy="718.2" r="7.3"/>
		<circle class="st0" cx="1280.7" cy="700.6" r="7.3"/>
		<circle class="st0" cx="1262.9" cy="701.2" r="7.3"/>
		<circle class="st0" cx="1278.1" cy="683.5" r="7.3"/>
		<circle class="st0" cx="1284.4" cy="734" r="7.3"/>
		<circle class="st0" cx="1299.7" cy="716.4" r="7.3"/>
		<circle class="st0" cx="1281.9" cy="717" r="7.3"/>
		<circle class="st0" cx="1297.1" cy="699.4" r="7.3"/>
		<circle class="st0" cx="1293.2" cy="801.6" r="7.3"/>
		<circle class="st0" cx="1308.5" cy="783.9" r="7.3"/>
		<circle class="st0" cx="1290.7" cy="784.5" r="7.3"/>
		<circle class="st0" cx="1305.9" cy="766.9" r="7.3"/>
		<circle class="st0" cx="1312.2" cy="817.4" r="7.3"/>
		<circle class="st0" cx="1327.5" cy="799.8" r="7.3"/>
		<circle class="st0" cx="1309.7" cy="800.4" r="7.3"/>
		<circle class="st0" cx="1324.9" cy="782.8" r="7.3"/>
		<circle class="st0" cx="1303.4" cy="749.9" r="7.3"/>
		<circle class="st0" cx="1318.7" cy="732.2" r="7.3"/>
		<circle class="st0" cx="1300.9" cy="732.9" r="7.3"/>
		<circle class="st0" cx="1316.1" cy="715.2" r="7.3"/>
		<circle class="st0" cx="1322.4" cy="765.7" r="7.3"/>
		<circle class="st0" cx="1337.7" cy="748.1" r="7.3"/>
		<circle class="st0" cx="1319.9" cy="748.7" r="7.3"/>
		<circle class="st0" cx="1335.1" cy="731.1" r="7.3"/>
		<circle class="st0" cx="1212.9" cy="858.6" r="7.3"/>
		<circle class="st0" cx="1228.2" cy="841" r="7.3"/>
		<circle class="st0" cx="1210.4" cy="841.6" r="7.3"/>
		<circle class="st0" cx="1225.6" cy="823.9" r="7.3"/>
		<circle class="st0" cx="1231.9" cy="874.4" r="7.3"/>
		<circle class="st0" cx="1247.2" cy="856.8" r="7.3"/>
		<circle class="st0" cx="1229.4" cy="857.4" r="7.3"/>
		<circle class="st0" cx="1244.6" cy="839.8" r="7.3"/>
		<circle class="st0" cx="1223.1" cy="806.9" r="7.3"/>
		<circle class="st0" cx="1238.4" cy="789.3" r="7.3"/>
		<circle class="st0" cx="1220.6" cy="789.9" r="7.3"/>
		<circle class="st0" cx="1235.8" cy="772.2" r="7.3"/>
		<circle class="st0" cx="1242.1" cy="822.8" r="7.3"/>
		<circle class="st0" cx="1257.4" cy="805.1" r="7.3"/>
		<circle class="st0" cx="1239.6" cy="805.7" r="7.3"/>
		<circle class="st0" cx="1254.8" cy="788.1" r="7.3"/>
		<circle class="st0" cx="1250.9" cy="890.3" r="7.3"/>
		<circle class="st0" cx="1266.2" cy="872.7" r="7.3"/>
		<circle class="st0" cx="1248.4" cy="873.3" r="7.3"/>
		<circle class="st0" cx="1263.6" cy="855.6" r="7.3"/>
		<circle class="st0" cx="1269.9" cy="906.1" r="7.3"/>
		<circle class="st0" cx="1285.2" cy="888.5" r="7.3"/>
		<circle class="st0" cx="1267.4" cy="889.1" r="7.3"/>
		<circle class="st0" cx="1282.6" cy="871.5" r="7.3"/>
		<circle class="st0" cx="1261.1" cy="838.6" r="7.3"/>
		<circle class="st0" cx="1276.4" cy="821" r="7.3"/>
		<circle class="st0" cx="1258.6" cy="821.6" r="7.3"/>
		<circle class="st0" cx="1273.8" cy="803.9" r="7.3"/>
		<circle class="st0" cx="1280.1" cy="854.5" r="7.3"/>
		<circle class="st0" cx="1295.4" cy="836.8" r="7.3"/>
		<circle class="st0" cx="1277.6" cy="837.4" r="7.3"/>
		<circle class="st0" cx="1292.8" cy="819.8" r="7.3"/>
		<circle class="st0" cx="1191.5" cy="962.4" r="7.3"/>
		<circle class="st0" cx="1206.8" cy="944.7" r="7.3"/>
		<circle class="st0" cx="1189" cy="945.3" r="7.3"/>
		<circle class="st0" cx="1204.3" cy="927.7" r="7.3"/>
		<circle class="st0" cx="1210.5" cy="978.2" r="7.3"/>
		<circle class="st0" cx="1202" cy="991.8" r="7.3"/>
		<circle class="st0" cx="1192" cy="977.8" r="7.3"/>
		<circle class="st0" cx="1187" cy="997.8" r="7.3"/>
		<circle class="st0" cx="1225.8" cy="960.6" r="7.3"/>
		<circle class="st0" cx="1208" cy="961.2" r="7.3"/>
		<circle class="st0" cx="1223.3" cy="943.5" r="7.3"/>
		<circle class="st0" cx="1201.7" cy="910.7" r="7.3"/>
		<circle class="st0" cx="1217" cy="893" r="7.3"/>
		<circle class="st0" cx="1199.2" cy="893.7" r="7.3"/>
		<circle class="st0" cx="1214.5" cy="876" r="7.3"/>
		<circle class="st0" cx="1220.7" cy="926.5" r="7.3"/>
		<circle class="st0" cx="1236" cy="908.9" r="7.3"/>
		<circle class="st0" cx="1218.2" cy="909.5" r="7.3"/>
		<circle class="st0" cx="1233.5" cy="891.9" r="7.3"/>
		<circle class="st0" cx="1228.1" cy="995.9" r="7.3"/>
		<circle class="st0" cx="1244.8" cy="976.4" r="7.3"/>
		<circle class="st0" cx="1227" cy="977" r="7.3"/>
		<circle class="st0" cx="1242.3" cy="959.4" r="7.3"/>
		<circle class="st0" cx="1248.5" cy="1009.9" r="7.3"/>
		<circle class="st0" cx="1263.8" cy="992.3" r="7.3"/>
		<circle class="st0" cx="1246" cy="992.9" r="7.3"/>
		<circle class="st0" cx="1261.3" cy="975.2" r="7.3"/>
		<circle class="st0" cx="1239.7" cy="942.4" r="7.3"/>
		<circle class="st0" cx="1255" cy="924.7" r="7.3"/>
		<circle class="st0" cx="1237.2" cy="925.3" r="7.3"/>
		<circle class="st0" cx="1252.5" cy="907.7" r="7.3"/>
		<circle class="st0" cx="1258.7" cy="958.2" r="7.3"/>
		<circle class="st0" cx="1274" cy="940.6" r="7.3"/>
		<circle class="st0" cx="1256.2" cy="941.2" r="7.3"/>
		<circle class="st0" cx="1271.5" cy="923.6" r="7.3"/>
		<circle class="st0" cx="435.5" cy="1009.7" r="7.3"/>
		<circle class="st0" cx="456.7" cy="1019.4" r="7.3"/>
		<circle class="st0" cx="451.1" cy="1002.4" r="7.3"/>
		<circle class="st0" cx="472.3" cy="1012.2" r="7.3"/>
		<circle class="st0" cx="425.6" cy="1032.3" r="7.3"/>
		<circle class="st0" cx="446.8" cy="1042.1" r="7.3"/>
		<circle class="st0" cx="441.2" cy="1025.1" r="7.3"/>
		<circle class="st0" cx="462.5" cy="1034.9" r="7.3"/>
		<circle class="st0" cx="488" cy="1005" r="7.3"/>
		<circle class="st0" cx="509.2" cy="1014.7" r="7.3"/>
		<circle class="st0" cx="503.6" cy="997.7" r="7.3"/>
		<circle class="st0" cx="524.8" cy="1007.5" r="7.3"/>
		<circle class="st0" cx="478.1" cy="1027.6" r="7.3"/>
		<circle class="st0" cx="499.3" cy="1037.4" r="7.3"/>
		<circle class="st0" cx="493.7" cy="1020.4" r="7.3"/>
		<circle class="st0" cx="514.9" cy="1030.1" r="7.3"/>
		<circle class="st0" cx="415.7" cy="1055" r="7.3"/>
		<circle class="st0" cx="436.9" cy="1064.7" r="7.3"/>
		<circle class="st0" cx="431.4" cy="1047.8" r="7.3"/>
		<circle class="st0" cx="452.6" cy="1057.5" r="7.3"/>
		<circle class="st0" cx="405.8" cy="1077.7" r="7.3"/>
		<circle class="st0" cx="427.1" cy="1087.4" r="7.3"/>
		<circle class="st0" cx="421.5" cy="1070.5" r="7.3"/>
		<circle class="st0" cx="442.7" cy="1080.2" r="7.3"/>
		<circle class="st0" cx="468.2" cy="1050.3" r="7.3"/>
		<circle class="st0" cx="489.4" cy="1060" r="7.3"/>
		<circle class="st0" cx="483.8" cy="1043.1" r="7.3"/>
		<circle class="st0" cx="505" cy="1052.8" r="7.3"/>
		<circle class="st0" cx="458.3" cy="1073" r="7.3"/>
		<circle class="st0" cx="479.5" cy="1082.7" r="7.3"/>
		<circle class="st0" cx="473.9" cy="1065.8" r="7.3"/>
		<circle class="st0" cx="495.2" cy="1075.5" r="7.3"/>
		<circle class="st0" cx="329.9" cy="1018.3" r="7.3"/>
		<circle class="st0" cx="351.1" cy="1028" r="7.3"/>
		<circle class="st0" cx="345.5" cy="1011" r="7.3"/>
		<circle class="st0" cx="366.7" cy="1020.8" r="7.3"/>
		<circle class="st0" cx="320" cy="1040.9" r="7.3"/>
		<circle class="st0" cx="341.2" cy="1050.7" r="7.3"/>
		<circle class="st0" cx="335.6" cy="1033.7" r="7.3"/>
		<circle class="st0" cx="356.9" cy="1043.4" r="7.3"/>
		<circle class="st0" cx="382.4" cy="1013.6" r="7.3"/>
		<circle class="st0" cx="403.6" cy="1023.3" r="7.3"/>
		<circle class="st0" cx="398" cy="1006.3" r="7.3"/>
		<circle class="st0" cx="419.2" cy="1016.1" r="7.3"/>
		<circle class="st0" cx="372.5" cy="1036.2" r="7.3"/>
		<circle class="st0" cx="393.7" cy="1046" r="7.3"/>
		<circle class="st0" cx="388.1" cy="1029" r="7.3"/>
		<circle class="st0" cx="409.3" cy="1038.7" r="7.3"/>
		<circle class="st0" cx="310.1" cy="1063.6" r="7.3"/>
		<circle class="st0" cx="331.3" cy="1073.3" r="7.3"/>
		<circle class="st0" cx="325.8" cy="1056.4" r="7.3"/>
		<circle class="st0" cx="347" cy="1066.1" r="7.3"/>
		<circle class="st0" cx="300.2" cy="1086.3" r="7.3"/>
		<circle class="st0" cx="321.5" cy="1096" r="7.3"/>
		<circle class="st0" cx="315.9" cy="1079.1" r="7.3"/>
		<circle class="st0" cx="337.1" cy="1088.8" r="7.3"/>
		<circle class="st0" cx="362.6" cy="1058.9" r="7.3"/>
		<circle class="st0" cx="383.8" cy="1068.6" r="7.3"/>
		<circle class="st0" cx="378.2" cy="1051.7" r="7.3"/>
		<circle class="st0" cx="399.4" cy="1061.4" r="7.3"/>
		<circle class="st0" cx="352.7" cy="1081.6" r="7.3"/>
		<circle class="st0" cx="373.9" cy="1091.3" r="7.3"/>
		<circle class="st0" cx="368.3" cy="1074.4" r="7.3"/>
		<circle class="st0" cx="389.6" cy="1084.1" r="7.3"/>
		<circle class="st0" cx="232.9" cy="1002.5" r="7.3"/>
		<circle class="st0" cx="254.1" cy="1012.3" r="7.3"/>
		<circle class="st0" cx="248.5" cy="995.3" r="7.3"/>
		<circle class="st0" cx="269.7" cy="1005.1" r="7.3"/>
		<circle class="st0" cx="223" cy="1025.2" r="7.3"/>
		<circle class="st0" cx="244.2" cy="1034.9" r="7.3"/>
		<circle class="st0" cx="238.6" cy="1018" r="7.3"/>
		<circle class="st0" cx="259.8" cy="1027.7" r="7.3"/>
		<circle class="st0" cx="285.3" cy="997.8" r="7.3"/>
		<circle class="st0" cx="306.6" cy="1007.6" r="7.3"/>
		<circle class="st0" cx="301" cy="990.6" r="7.3"/>
		<circle class="st0" cx="322.2" cy="1000.3" r="7.3"/>
		<circle class="st0" cx="275.5" cy="1020.5" r="7.3"/>
		<circle class="st0" cx="296.7" cy="1030.2" r="7.3"/>
		<circle class="st0" cx="291.1" cy="1013.3" r="7.3"/>
		<circle class="st0" cx="312.3" cy="1023" r="7.3"/>
		<circle class="st0" cx="213.1" cy="1047.9" r="7.3"/>
		<circle class="st0" cx="234.3" cy="1057.6" r="7.3"/>
		<circle class="st0" cx="228.7" cy="1040.7" r="7.3"/>
		<circle class="st0" cx="250" cy="1050.4" r="7.3"/>
		<circle class="st0" cx="203.2" cy="1070.6" r="7.3"/>
		<circle class="st0" cx="224.4" cy="1080.3" r="7.3"/>
		<circle class="st0" cx="218.9" cy="1063.4" r="7.3"/>
		<circle class="st0" cx="240.1" cy="1073.1" r="7.3"/>
		<circle class="st0" cx="265.6" cy="1043.2" r="7.3"/>
		<circle class="st0" cx="286.8" cy="1052.9" r="7.3"/>
		<circle class="st0" cx="281.2" cy="1036" r="7.3"/>
		<circle class="st0" cx="302.4" cy="1045.7" r="7.3"/>
		<circle class="st0" cx="255.7" cy="1065.9" r="7.3"/>
		<circle class="st0" cx="276.9" cy="1075.6" r="7.3"/>
		<circle class="st0" cx="271.3" cy="1058.7" r="7.3"/>
		<circle class="st0" cx="292.5" cy="1068.4" r="7.3"/>
		<circle class="st0" cx="127.3" cy="1011.1" r="7.3"/>
		<circle class="st0" cx="148.5" cy="1020.9" r="7.3"/>
		<circle class="st0" cx="142.9" cy="1003.9" r="7.3"/>
		<circle class="st0" cx="164.1" cy="1013.6" r="7.3"/>
		<circle class="st0" cx="117.4" cy="1033.8" r="7.3"/>
		<circle class="st0" cx="138.6" cy="1043.5" r="7.3"/>
		<circle class="st0" cx="133" cy="1026.6" r="7.3"/>
		<circle class="st0" cx="154.2" cy="1036.3" r="7.3"/>
		<circle class="st0" cx="179.7" cy="1006.4" r="7.3"/>
		<circle class="st0" cx="201" cy="1016.2" r="7.3"/>
		<circle class="st0" cx="195.4" cy="999.2" r="7.3"/>
		<circle class="st0" cx="216.6" cy="1008.9" r="7.3"/>
		<circle class="st0" cx="169.9" cy="1029.1" r="7.3"/>
		<circle class="st0" cx="191.1" cy="1038.8" r="7.3"/>
		<circle class="st0" cx="185.5" cy="1021.9" r="7.3"/>
		<circle class="st0" cx="206.7" cy="1031.6" r="7.3"/>
		<circle class="st0" cx="107.5" cy="1056.5" r="7.3"/>
		<circle class="st0" cx="128.7" cy="1066.2" r="7.3"/>
		<circle class="st0" cx="123.1" cy="1049.3" r="7.3"/>
		<circle class="st0" cx="144.4" cy="1059" r="7.3"/>
		<circle class="st0" cx="97.6" cy="1079.2" r="7.3"/>
		<circle class="st0" cx="118.8" cy="1088.9" r="7.3"/>
		<circle class="st0" cx="113.3" cy="1072" r="7.3"/>
		<circle class="st0" cx="134.5" cy="1081.7" r="7.3"/>
		<circle class="st0" cx="160" cy="1051.8" r="7.3"/>
		<circle class="st0" cx="181.2" cy="1061.5" r="7.3"/>
		<circle class="st0" cx="175.6" cy="1044.6" r="7.3"/>
		<circle class="st0" cx="196.8" cy="1054.3" r="7.3"/>
		<circle class="st0" cx="150.1" cy="1074.5" r="7.3"/>
		<circle class="st0" cx="171.3" cy="1084.2" r="7.3"/>
		<circle class="st0" cx="165.7" cy="1067.3" r="7.3"/>
		<circle class="st0" cx="186.9" cy="1077" r="7.3"/>
		<circle class="st0" cx="24" cy="1019.2" r="7.3"/>
		<circle class="st0" cx="45.2" cy="1029" r="7.3"/>
		<circle class="st0" cx="39.6" cy="1012" r="7.3"/>
		<circle class="st0" cx="60.8" cy="1021.7" r="7.3"/>
		<circle class="st0" cx="14.1" cy="1041.9" r="7.3"/>
		<circle class="st0" cx="35.3" cy="1051.6" r="7.3"/>
		<circle class="st0" cx="29.7" cy="1034.7" r="7.3"/>
		<circle class="st0" cx="50.9" cy="1044.4" r="7.3"/>
		<circle class="st0" cx="76.4" cy="1014.5" r="7.3"/>
		<circle class="st0" cx="97.6" cy="1024.3" r="7.3"/>
		<circle class="st0" cx="92.1" cy="1007.3" r="7.3"/>
		<circle class="st0" cx="113.3" cy="1017" r="7.3"/>
		<circle class="st0" cx="66.5" cy="1037.2" r="7.3"/>
		<circle class="st0" cx="87.8" cy="1046.9" r="7.3"/>
		<circle class="st0" cx="82.2" cy="1030" r="7.3"/>
		<circle class="st0" cx="103.4" cy="1039.7" r="7.3"/>
		<circle class="st0" cx="4.2" cy="1064.6" r="7.3"/>
		<circle class="st0" cx="25.4" cy="1074.3" r="7.3"/>
		<circle class="st0" cx="19.8" cy="1057.4" r="7.3"/>
		<circle class="st0" cx="41" cy="1067.1" r="7.3"/>
		<circle class="st0" cx="811.5" cy="1089.4" r="7.3"/>
		<circle class="st0" cx="15.5" cy="1097" r="7.3"/>
		<circle class="st0" cx="9.9" cy="1080.1" r="7.3"/>
		<circle class="st0" cx="31.2" cy="1089.8" r="7.3"/>
		<circle class="st0" cx="56.7" cy="1059.9" r="7.3"/>
		<circle class="st0" cx="77.9" cy="1069.6" r="7.3"/>
		<circle class="st0" cx="72.3" cy="1052.7" r="7.3"/>
		<circle class="st0" cx="93.5" cy="1062.4" r="7.3"/>
		<circle class="st0" cx="46.8" cy="1082.6" r="7.3"/>
		<circle class="st0" cx="68" cy="1092.3" r="7.3"/>
		<circle class="st0" cx="62.4" cy="1075.4" r="7.3"/>
		<circle class="st0" cx="83.6" cy="1085.1" r="7.3"/>
		<circle class="st0" cx="735.6" cy="1029.9" r="7.3"/>
		<circle class="st0" cx="756.8" cy="1039.6" r="7.3"/>
		<circle class="st0" cx="751.2" cy="1022.7" r="7.3"/>
		<circle class="st0" cx="772.4" cy="1032.4" r="7.3"/>
		<circle class="st0" cx="725.7" cy="1052.6" r="7.3"/>
		<circle class="st0" cx="746.9" cy="1062.3" r="7.3"/>
		<circle class="st0" cx="741.3" cy="1045.4" r="7.3"/>
		<circle class="st0" cx="762.5" cy="1055.1" r="7.3"/>
		<circle class="st0" cx="788" cy="1025.2" r="7.3"/>
		<circle class="st0" cx="809.2" cy="1034.9" r="7.3"/>
		<circle class="st0" cx="803.7" cy="1018" r="7.3"/>
		<circle class="st0" cx="7.7" cy="1025.6" r="7.3"/>
		<circle class="st0" cx="778.1" cy="1047.9" r="7.3"/>
		<circle class="st0" cx="799.4" cy="1057.6" r="7.3"/>
		<circle class="st0" cx="793.8" cy="1040.7" r="7.3"/>
		<circle class="st0" cx="-2.2" cy="1048.3" r="7.3"/>
		<circle class="st0" cx="1199.1" cy="1011.1" r="7.3"/>
		<circle class="st0" cx="1219.4" cy="1020.7" r="7.3"/>
		<circle class="st0" cx="1214.7" cy="1003.9" r="7.3"/>
		<circle class="st0" cx="1231.9" cy="1011.3" r="7.3"/>
		<circle class="st0" cx="1189.2" cy="1033.8" r="7.3"/>
		<circle class="st0" cx="1210.5" cy="1043.5" r="7.3"/>
		<circle class="st0" cx="1204.9" cy="1026.6" r="7.3"/>
		<circle class="st0" cx="1226.1" cy="1036.3" r="7.3"/>
		<circle class="st0" cx="1239.2" cy="1025.9" r="7.3"/>
		<circle class="st0" cx="1179.4" cy="1056.5" r="7.3"/>
		<circle class="st0" cx="1200.6" cy="1066.2" r="7.3"/>
		<circle class="st0" cx="1195" cy="1049.3" r="7.3"/>
		<circle class="st0" cx="1216.2" cy="1059" r="7.3"/>
		<circle class="st0" cx="1169.5" cy="1079.2" r="7.3"/>
		<circle class="st0" cx="1190.7" cy="1088.9" r="7.3"/>
		<circle class="st0" cx="1185.1" cy="1072" r="7.3"/>
		<circle class="st0" cx="1206.3" cy="1081.7" r="7.3"/>
		<circle class="st0" cx="1240.3" cy="1045.8" r="7.3"/>
		<circle class="st0" cx="1221.9" cy="1074.5" r="7.3"/>
		<circle class="st0" cx="1243.2" cy="1084.2" r="7.3"/>
		<circle class="st0" cx="1233" cy="1061.4" r="7.3"/>
		<circle class="st0" cx="1095.8" cy="1019.2" r="7.3"/>
		<circle class="st0" cx="1117" cy="1029" r="7.3"/>
		<circle class="st0" cx="1111.4" cy="1012" r="7.3"/>
		<circle class="st0" cx="1132.6" cy="1021.7" r="7.3"/>
		<circle class="st0" cx="1085.9" cy="1041.9" r="7.3"/>
		<circle class="st0" cx="1107.1" cy="1051.6" r="7.3"/>
		<circle class="st0" cx="1101.5" cy="1034.7" r="7.3"/>
		<circle class="st0" cx="1122.8" cy="1044.4" r="7.3"/>
		<circle class="st0" cx="1148.3" cy="1014.5" r="7.3"/>
		<circle class="st0" cx="1169.5" cy="1024.3" r="7.3"/>
		<circle class="st0" cx="1163.9" cy="1007.3" r="7.3"/>
		<circle class="st0" cx="1185.1" cy="1017" r="7.3"/>
		<circle class="st0" cx="1138.4" cy="1037.2" r="7.3"/>
		<circle class="st0" cx="1159.6" cy="1046.9" r="7.3"/>
		<circle class="st0" cx="1154" cy="1030" r="7.3"/>
		<circle class="st0" cx="1175.2" cy="1039.7" r="7.3"/>
		<circle class="st0" cx="1076" cy="1064.6" r="7.3"/>
		<circle class="st0" cx="1097.3" cy="1074.3" r="7.3"/>
		<circle class="st0" cx="1091.7" cy="1057.4" r="7.3"/>
		<circle class="st0" cx="1112.9" cy="1067.1" r="7.3"/>
		<circle class="st0" cx="1087.4" cy="1097" r="7.3"/>
		<circle class="st0" cx="1081.8" cy="1080.1" r="7.3"/>
		<circle class="st0" cx="1103" cy="1089.8" r="7.3"/>
		<circle class="st0" cx="1128.5" cy="1059.9" r="7.3"/>
		<circle class="st0" cx="1149.7" cy="1069.6" r="7.3"/>
		<circle class="st0" cx="1144.1" cy="1052.7" r="7.3"/>
		<circle class="st0" cx="1165.4" cy="1062.4" r="7.3"/>
		<circle class="st0" cx="1118.6" cy="1082.6" r="7.3"/>
		<circle class="st0" cx="1139.8" cy="1092.3" r="7.3"/>
		<circle class="st0" cx="1134.3" cy="1075.4" r="7.3"/>
		<circle class="st0" cx="1155.5" cy="1085.1" r="7.3"/>
		<circle class="st0" cx="1079.5" cy="1025.6" r="7.3"/>
		<circle class="st0" cx="1069.6" cy="1048.3" r="7.3"/>
		<circle class="st0" cx="715.8" cy="1075.3" r="7.3"/>
		<circle class="st0" cx="737" cy="1085" r="7.3"/>
		<circle class="st0" cx="731.4" cy="1068.1" r="7.3"/>
		<circle class="st0" cx="752.6" cy="1077.8" r="7.3"/>
		<circle class="st0" cx="705.9" cy="1098" r="7.3"/>
		<circle class="st0" cx="727.1" cy="1107.7" r="7.3"/>
		<circle class="st0" cx="721.5" cy="1090.8" r="7.3"/>
		<circle class="st0" cx="742.7" cy="1100.5" r="7.3"/>
		<circle class="st0" cx="768.3" cy="1070.6" r="7.3"/>
		<circle class="st0" cx="789.5" cy="1080.3" r="7.3"/>
		<circle class="st0" cx="783.9" cy="1063.4" r="7.3"/>
		<circle class="st0" cx="805.1" cy="1073.1" r="7.3"/>
		<circle class="st0" cx="758.4" cy="1093.3" r="7.3"/>
		<circle class="st0" cx="779.6" cy="1103" r="7.3"/>
		<circle class="st0" cx="774" cy="1086.1" r="7.3"/>
		<circle class="st0" cx="795.2" cy="1095.8" r="7.3"/>
		<circle class="st0" cx="638.5" cy="1014.2" r="7.3"/>
		<circle class="st0" cx="659.7" cy="1023.9" r="7.3"/>
		<circle class="st0" cx="654.2" cy="1007" r="7.3"/>
		<circle class="st0" cx="675.4" cy="1016.7" r="7.3"/>
		<circle class="st0" cx="628.6" cy="1036.9" r="7.3"/>
		<circle class="st0" cx="649.9" cy="1046.6" r="7.3"/>
		<circle class="st0" cx="644.3" cy="1029.7" r="7.3"/>
		<circle class="st0" cx="665.5" cy="1039.4" r="7.3"/>
		<circle class="st0" cx="691" cy="1009.5" r="7.3"/>
		<circle class="st0" cx="712.2" cy="1019.2" r="7.3"/>
		<circle class="st0" cx="706.6" cy="1002.3" r="7.3"/>
		<circle class="st0" cx="727.8" cy="1012" r="7.3"/>
		<circle class="st0" cx="681.1" cy="1032.2" r="7.3"/>
		<circle class="st0" cx="702.3" cy="1041.9" r="7.3"/>
		<circle class="st0" cx="696.7" cy="1025" r="7.3"/>
		<circle class="st0" cx="718" cy="1034.7" r="7.3"/>
		<circle class="st0" cx="618.8" cy="1059.6" r="7.3"/>
		<circle class="st0" cx="640" cy="1069.3" r="7.3"/>
		<circle class="st0" cx="634.4" cy="1052.4" r="7.3"/>
		<circle class="st0" cx="655.6" cy="1062.1" r="7.3"/>
		<circle class="st0" cx="608.9" cy="1082.3" r="7.3"/>
		<circle class="st0" cx="630.1" cy="1092" r="7.3"/>
		<circle class="st0" cx="624.5" cy="1075" r="7.3"/>
		<circle class="st0" cx="645.7" cy="1084.8" r="7.3"/>
		<circle class="st0" cx="671.2" cy="1054.9" r="7.3"/>
		<circle class="st0" cx="692.5" cy="1064.6" r="7.3"/>
		<circle class="st0" cx="686.9" cy="1047.7" r="7.3"/>
		<circle class="st0" cx="708.1" cy="1057.4" r="7.3"/>
		<circle class="st0" cx="661.4" cy="1077.6" r="7.3"/>
		<circle class="st0" cx="682.6" cy="1087.3" r="7.3"/>
		<circle class="st0" cx="677" cy="1070.3" r="7.3"/>
		<circle class="st0" cx="698.2" cy="1080.1" r="7.3"/>
		<circle class="st0" cx="532.9" cy="1022.8" r="7.3"/>
		<circle class="st0" cx="554.1" cy="1032.5" r="7.3"/>
		<circle class="st0" cx="548.6" cy="1015.6" r="7.3"/>
		<circle class="st0" cx="569.8" cy="1025.3" r="7.3"/>
		<circle class="st0" cx="523" cy="1045.5" r="7.3"/>
		<circle class="st0" cx="544.3" cy="1055.2" r="7.3"/>
		<circle class="st0" cx="538.7" cy="1038.3" r="7.3"/>
		<circle class="st0" cx="559.9" cy="1048" r="7.3"/>
		<circle class="st0" cx="585.4" cy="1018.1" r="7.3"/>
		<circle class="st0" cx="606.6" cy="1027.8" r="7.3"/>
		<circle class="st0" cx="601" cy="1010.9" r="7.3"/>
		<circle class="st0" cx="622.2" cy="1020.6" r="7.3"/>
		<circle class="st0" cx="575.5" cy="1040.8" r="7.3"/>
		<circle class="st0" cx="596.7" cy="1050.5" r="7.3"/>
		<circle class="st0" cx="591.1" cy="1033.6" r="7.3"/>
		<circle class="st0" cx="612.4" cy="1043.3" r="7.3"/>
		<circle class="st0" cx="513.2" cy="1068.2" r="7.3"/>
		<circle class="st0" cx="534.4" cy="1077.9" r="7.3"/>
		<circle class="st0" cx="528.8" cy="1061" r="7.3"/>
		<circle class="st0" cx="550" cy="1070.7" r="7.3"/>
		<circle class="st0" cx="503.3" cy="1090.9" r="7.3"/>
		<circle class="st0" cx="524.5" cy="1100.6" r="7.3"/>
		<circle class="st0" cx="518.9" cy="1083.6" r="7.3"/>
		<circle class="st0" cx="540.1" cy="1093.4" r="7.3"/>
		<circle class="st0" cx="565.6" cy="1063.5" r="7.3"/>
		<circle class="st0" cx="586.9" cy="1073.2" r="7.3"/>
		<circle class="st0" cx="581.3" cy="1056.3" r="7.3"/>
		<circle class="st0" cx="602.5" cy="1066" r="7.3"/>
		<circle class="st0" cx="555.8" cy="1086.1" r="7.3"/>
		<circle class="st0" cx="577" cy="1095.9" r="7.3"/>
		<circle class="st0" cx="571.4" cy="1078.9" r="7.3"/>
		<circle class="st0" cx="592.6" cy="1088.7" r="7.3"/>
		<circle class="st0" cx="1065.1" cy="1089.4" r="7.3"/>
		<circle class="st0" cx="989.2" cy="1029.9" r="7.3"/>
		<circle class="st0" cx="1010.4" cy="1039.6" r="7.3"/>
		<circle class="st0" cx="1004.8" cy="1022.7" r="7.3"/>
		<circle class="st0" cx="1026" cy="1032.4" r="7.3"/>
		<circle class="st0" cx="979.3" cy="1052.6" r="7.3"/>
		<circle class="st0" cx="1000.5" cy="1062.3" r="7.3"/>
		<circle class="st0" cx="994.9" cy="1045.4" r="7.3"/>
		<circle class="st0" cx="1016.1" cy="1055.1" r="7.3"/>
		<circle class="st0" cx="1041.6" cy="1025.2" r="7.3"/>
		<circle class="st0" cx="1062.8" cy="1034.9" r="7.3"/>
		<circle class="st0" cx="1057.3" cy="1018" r="7.3"/>
		<circle class="st0" cx="1031.8" cy="1047.9" r="7.3"/>
		<circle class="st0" cx="1053" cy="1057.6" r="7.3"/>
		<circle class="st0" cx="1047.4" cy="1040.7" r="7.3"/>
		<circle class="st0" cx="969.4" cy="1075.3" r="7.3"/>
		<circle class="st0" cx="990.6" cy="1085" r="7.3"/>
		<circle class="st0" cx="985" cy="1068.1" r="7.3"/>
		<circle class="st0" cx="1006.2" cy="1077.8" r="7.3"/>
		<circle class="st0" cx="959.5" cy="1098" r="7.3"/>
		<circle class="st0" cx="980.7" cy="1107.7" r="7.3"/>
		<circle class="st0" cx="975.1" cy="1090.8" r="7.3"/>
		<circle class="st0" cx="996.4" cy="1100.5" r="7.3"/>
		<circle class="st0" cx="1021.9" cy="1070.6" r="7.3"/>
		<circle class="st0" cx="1043.1" cy="1080.3" r="7.3"/>
		<circle class="st0" cx="1037.5" cy="1063.4" r="7.3"/>
		<circle class="st0" cx="1058.7" cy="1073.1" r="7.3"/>
		<circle class="st0" cx="1012" cy="1093.3" r="7.3"/>
		<circle class="st0" cx="1033.2" cy="1103" r="7.3"/>
		<circle class="st0" cx="1027.6" cy="1086.1" r="7.3"/>
		<circle class="st0" cx="1048.8" cy="1095.8" r="7.3"/>
		<circle class="st0" cx="892.1" cy="1014.2" r="7.3"/>
		<circle class="st0" cx="913.4" cy="1023.9" r="7.3"/>
		<circle class="st0" cx="907.8" cy="1007" r="7.3"/>
		<circle class="st0" cx="929" cy="1016.7" r="7.3"/>
		<circle class="st0" cx="882.3" cy="1036.9" r="7.3"/>
		<circle class="st0" cx="903.5" cy="1046.6" r="7.3"/>
		<circle class="st0" cx="897.9" cy="1029.7" r="7.3"/>
		<circle class="st0" cx="919.1" cy="1039.4" r="7.3"/>
		<circle class="st0" cx="944.6" cy="1009.5" r="7.3"/>
		<circle class="st0" cx="965.8" cy="1019.2" r="7.3"/>
		<circle class="st0" cx="960.2" cy="1002.3" r="7.3"/>
		<circle class="st0" cx="981.5" cy="1012" r="7.3"/>
		<circle class="st0" cx="934.7" cy="1032.2" r="7.3"/>
		<circle class="st0" cx="955.9" cy="1041.9" r="7.3"/>
		<circle class="st0" cx="950.4" cy="1025" r="7.3"/>
		<circle class="st0" cx="971.6" cy="1034.7" r="7.3"/>
		<circle class="st0" cx="872.4" cy="1059.6" r="7.3"/>
		<circle class="st0" cx="893.6" cy="1069.3" r="7.3"/>
		<circle class="st0" cx="888" cy="1052.4" r="7.3"/>
		<circle class="st0" cx="909.2" cy="1062.1" r="7.3"/>
		<circle class="st0" cx="862.5" cy="1082.3" r="7.3"/>
		<circle class="st0" cx="883.7" cy="1092" r="7.3"/>
		<circle class="st0" cx="878.1" cy="1075" r="7.3"/>
		<circle class="st0" cx="899.3" cy="1084.8" r="7.3"/>
		<circle class="st0" cx="924.8" cy="1054.9" r="7.3"/>
		<circle class="st0" cx="946.1" cy="1064.6" r="7.3"/>
		<circle class="st0" cx="940.5" cy="1047.7" r="7.3"/>
		<circle class="st0" cx="961.7" cy="1057.4" r="7.3"/>
		<circle class="st0" cx="915" cy="1077.6" r="7.3"/>
		<circle class="st0" cx="936.2" cy="1087.3" r="7.3"/>
		<circle class="st0" cx="930.6" cy="1070.3" r="7.3"/>
		<circle class="st0" cx="951.8" cy="1080.1" r="7.3"/>
		<circle class="st0" cx="823.4" cy="1025.3" r="7.3"/>
		<circle class="st0" cx="813.5" cy="1048" r="7.3"/>
		<circle class="st0" cx="839" cy="1018.1" r="7.3"/>
		<circle class="st0" cx="860.2" cy="1027.8" r="7.3"/>
		<circle class="st0" cx="854.6" cy="1010.9" r="7.3"/>
		<circle class="st0" cx="875.9" cy="1020.6" r="7.3"/>
		<circle class="st0" cx="829.1" cy="1040.8" r="7.3"/>
		<circle class="st0" cx="850.3" cy="1050.5" r="7.3"/>
		<circle class="st0" cx="844.8" cy="1033.6" r="7.3"/>
		<circle class="st0" cx="866" cy="1043.3" r="7.3"/>
		<circle class="st0" cx="819.2" cy="1063.5" r="7.3"/>
		<circle class="st0" cx="840.5" cy="1073.2" r="7.3"/>
		<circle class="st0" cx="834.9" cy="1056.3" r="7.3"/>
		<circle class="st0" cx="856.1" cy="1066" r="7.3"/>
		<circle class="st0" cx="830.6" cy="1095.9" r="7.3"/>
		<circle class="st0" cx="825" cy="1078.9" r="7.3"/>
		<circle class="st0" cx="846.2" cy="1088.7" r="7.3"/>
	</g>
	<polygon class="st1" points="1175.9,1026.3 130,1026.3 271,666.5 1356.8,341.1 	"/>
	<g>
		<defs>
			<polygon id="SVGID_3_" points="1175.9,1026.3 130,1026.3 271,666.5 1356.8,341.1 			"/>
		</defs>
		<clipPath id="SVGID_4_">
			<use xlink:href="#SVGID_3_"  style="overflow:visible;"/>
		</clipPath>
		<polygon class="st2" points="189,956.9 204.3,912.6 302.8,947 287.4,991.2 		"/>
		<polygon class="st2" points="297.5,1100.1 275.1,1059.1 366.5,1008.8 388.9,1049.9 		"/>
		<polygon class="st2" points="354.6,805.3 339.2,761.1 437.6,726.6 453,770.8 		"/>
		
			<rect x="87.9" y="892.8" transform="matrix(-8.457752e-02 0.9964 -0.9964 -8.457752e-02 1062.2457 913.9825)" class="st2" width="46.8" height="104.2"/>
		<polygon class="st2" points="173.1,796 186.9,751.2 286.5,782.2 272.6,827 		"/>
		<polygon class="st2" points="392,936.7 430,909.5 490.6,994.5 452.6,1021.7 		"/>
		<polygon class="st2" points="609.9,756.8 635.7,717.7 722.6,775.4 696.8,814.5 		"/>
		
			<rect x="617" y="981.2" transform="matrix(-8.457752e-02 0.9964 -0.9964 -8.457752e-02 1724.1425 482.5409)" class="st2" width="46.8" height="104.2"/>
		<polygon class="st2" points="524,874.4 537.9,829.7 637.4,860.7 623.6,905.4 		"/>
		<polygon class="st2" points="494.3,709.1 471.9,668.1 563.3,617.9 585.7,658.9 		"/>
		<polygon class="st2" points="352.1,681.1 323.9,643.8 406.8,580.6 435.1,617.9 		"/>
		<polygon class="st2" points="675.6,502.6 702.7,464.4 787.6,525.1 760.4,563.2 		"/>
		<polygon class="st2" points="680.2,663 658.3,621.7 750.3,572.6 772.2,613.9 		"/>
		<polygon class="st2" points="532.2,592.5 516.8,548.3 615.2,513.8 630.6,558.1 		"/>
		<polygon class="st2" points="855.6,538 827.3,500.7 910.3,437.5 938.6,474.8 		"/>
		<polygon class="st2" points="164.4,731.5 150.5,686.8 250,655.7 263.9,700.4 		"/>
		<polygon class="st2" points="857.3,942.7 872.6,898.5 971,932.8 955.7,977 		"/>
		<polygon class="st2" points="989,1064.9 966.6,1023.9 1058,973.6 1080.4,1014.7 		"/>
		<polygon class="st2" points="799.8,1090.7 777.9,1049.3 869.9,1000.3 891.8,1041.6 		"/>
		<polygon class="st2" points="987.2,911.7 958.9,874.4 1041.9,811.2 1070.1,848.4 		"/>
		
			<rect x="725.2" y="876.5" transform="matrix(-8.457752e-02 0.9964 -0.9964 -8.457752e-02 1737.1771 261.1894)" class="st2" width="46.8" height="104.2"/>
		<polygon class="st2" points="841.4,781.8 855.2,737.1 954.7,768.1 940.9,812.8 		"/>
		<polygon class="st2" points="1119.4,867.2 1146.5,829.1 1231.4,889.7 1204.3,927.8 		"/>
		<polygon class="st2" points="1139.7,1093.8 1117.8,1052.5 1209.8,1003.4 1231.7,1044.8 		"/>
		<polygon class="st2" points="1145.9,729.6 1159.8,684.8 1259.3,715.8 1245.4,760.6 		"/>
		<polygon class="st2" points="1118.2,558.4 1133.5,514.1 1232,548.5 1216.6,592.7 		"/>
		<polygon class="st2" points="996.6,699.7 974.7,658.4 1066.7,609.3 1088.6,650.7 		"/>
		<polygon class="st2" points="1219.7,400.2 1204.3,355.9 1302.7,321.5 1318.1,365.7 		"/>
		<polygon class="st2" points="1027.1,419.7 1041,374.9 1140.5,405.9 1126.6,450.6 		"/>
		<polygon class="st2" points="1291.9,451.9 1319,413.7 1403.9,474.4 1376.8,512.5 		"/>
		<polygon class="st2" points="1257.1,531.6 1295.1,504.4 1355.7,589.4 1317.7,616.6 		"/>
	</g>
	<polygon class="st5" points="1175.9,1026.3 130,1026.3 271,666.5 1356.8,341.1 	"/>
	<polygon class="st6" points="130.1,1026.1 130.3,1026.3 1175.9,1026.3 1356.3,343.3 1148,999 140,1017 130.1,1026 	"/>
</g>
<g id="Layer_12">
</g>
<g id="Layer_11">
</g>
<g id="type">
	<g>
		<path class="st7" d="M410.7,1115.2c-95,0-132.8-42.4-132.8-134.2V815.4h89V981c0,47,10.1,60.9,43.8,60.9
			c34.1,0,43.8-13.8,43.8-60.9V815.4H544V981C544,1072.8,506.2,1115.2,410.7,1115.2z"/>
		<path class="st7" d="M709.6,1025.3h-27.2v85.3h-88.6V815.4h112.1c119,0,128.7,60.4,128.7,105.6
			C834.6,965.8,828.1,1025.3,709.6,1025.3z M708.2,886h-25.8v70.6h25.8c29.5,0,36.9-17.1,36.9-35.5C745.1,902.1,737.2,886,708.2,886
			z"/>
		<path class="st7" d="M543.5,541.3v51.2h118.1v67.8H543.5v105.6h-88.1V470.7h215.9v70.6H543.5z"/>
		<path class="st7" d="M705.4,765.9V470.7h219.1v70.6h-131v42.4h117.6v64.1H793.5v47.5h131v70.6H705.4z"/>
		<path class="st7" d="M1080.9,765.9H966.9V470.7h118.5c95,0,139.8,56.7,139.8,145.8C1225.2,705,1177.3,765.9,1080.9,765.9z
			 M1071.6,541.3h-16.1v154.1h14.3c42.9,0,68.3-11.1,68.3-79.3C1138.1,549.1,1115,541.3,1071.6,541.3z"/>
		<polygon class="st7" points="1011.2,815.8 884,880.9 884,973.6 967.1,931.6 967.1,1111 1055.2,1111 1055.2,931.6 1138.4,973.6 
			1138.4,880.9 		"/>
	</g>
	<g>
		<path class="st8" d="M403.7,1105.2c-95,0-132.8-42.4-132.8-134.2V805.4h89V971c0,47,10.1,60.9,43.8,60.9
			c34.1,0,43.8-13.8,43.8-60.9V805.4H537V971C537,1062.8,499.2,1105.2,403.7,1105.2z"/>
		<path class="st8" d="M702.6,1015.3h-27.2v85.3h-88.6V805.4h112.1c119,0,128.7,60.4,128.7,105.6
			C827.6,955.8,821.1,1015.3,702.6,1015.3z M701.2,876h-25.8v70.6h25.8c29.5,0,36.9-17.1,36.9-35.5C738.1,892.1,730.2,876,701.2,876
			z"/>
		<path class="st8" d="M536.5,531.3v51.2h118.1v67.8H536.5v105.6h-88.1V460.7h215.9v70.6H536.5z"/>
		<path class="st8" d="M698.4,755.9V460.7h219.1v70.6h-131v42.4h117.6v64.1H786.5v47.5h131v70.6H698.4z"/>
		<path class="st8" d="M1073.9,755.9H959.9V460.7h118.5c95,0,139.8,56.7,139.8,145.8C1218.2,695,1170.3,755.9,1073.9,755.9z
			 M1064.6,531.3h-16.1v154.1h14.3c42.9,0,68.3-11.1,68.3-79.3C1131.1,539.1,1108,531.3,1064.6,531.3z"/>
	</g>
	<g>
		<polygon class="st9" points="1131.1,870.7 1131.1,963.5 1131.4,963.6 1131.4,870.9 		"/>
	</g>
	<g>
		<polygon class="st8" points="1004.2,805.8 877,870.9 877,963.6 960.1,921.6 960.1,1017 1048.2,1017 1048.2,921.6 1131.4,963.6 
			1131.4,870.9 		"/>
		<polyline class="st8" points="1048.2,1059.7 1048.2,1037.7 960.1,1037.7 960.1,1059.7 1004.2,1059.7 1004.2,1059.7 1004.2,1059.7 
					"/>
		<polyline class="st8" points="1048.2,1099.6 1048.2,1066.1 960.1,1066.1 960.1,1099.6 1004.2,1099.6 1004.2,1099.6 1004.2,1099.6 
					"/>
		<polygon class="st8" points="960.1,1017 960.1,1030.7 1004.2,1030.7 1004.2,1030.7 1004.2,1030.7 1048.2,1030.7 1048.2,1017 		"/>
	</g>
</g>
<g id="Layer_4">
</g>
<g id="Layer_9">
</g>
<g id="Layer_8">
</g>
<g id="Layer_3">
</g>
<g id="Layer_6">
</g>
<g id="Layer_5">
</g>
</svg>
