<svg xmlns="http://www.w3.org/2000/svg" xmlns:xlink="http://www.w3.org/1999/xlink" viewBox="0 0 1482.13 940.48"><defs><style>.cls-1,.cls-7{fill:none;}.cls-2{clip-path:url(#clip-path);}.cls-3{fill:#53387a;}.cls-4{fill:#00cec1;}.cls-5{clip-path:url(#clip-path-2);}.cls-6{fill:#ffbde1;}.cls-7{stroke:#53387a;stroke-miterlimit:10;stroke-width:11px;}.cls-8{fill:#bc7fd3;}.cls-9{fill:#ffe33b;}.cls-10{fill:#fdda50;}</style><clipPath id="clip-path" transform="translate(128.26 154.92)"><polygon class="cls-1" points="1254.89 14.74 1069.56 709.32 13.89 709.32 35.9 717.69 1117.75 737.27 1265.75 39.54 1254.89 14.74"/></clipPath><clipPath id="clip-path-2" transform="translate(128.26 154.92)"><polygon class="cls-1" points="1057.17 696.58 11.25 696.58 152.25 336.86 1238.1 11.44 1057.17 696.58"/></clipPath></defs><title>logo-01</title><g id="type"><g class="cls-2"><circle class="cls-3" cx="1392.33" cy="93.65" r="7.31"/><circle class="cls-3" cx="1407.62" cy="76.02" r="7.31"/><circle class="cls-3" cx="1389.79" cy="76.63" r="7.31"/><circle class="cls-3" cx="1405.08" cy="58.99" r="7.31"/><circle class="cls-3" cx="1411.33" cy="109.5" r="7.31"/><circle class="cls-3" cx="1426.62" cy="91.86" r="7.31"/><circle class="cls-3" cx="1408.79" cy="92.48" r="7.31"/><circle class="cls-3" cx="1424.08" cy="74.84" r="7.31"/><circle class="cls-3" cx="1402.54" cy="41.97" r="7.31"/><circle class="cls-3" cx="1417.82" cy="24.33" r="7.31"/><circle class="cls-3" cx="1400" cy="24.94" r="7.31"/><circle class="cls-3" cx="1415.28" cy="7.31" r="7.31"/><circle class="cls-3" cx="1421.54" cy="57.82" r="7.31"/><circle class="cls-3" cx="1436.82" cy="40.18" r="7.31"/><circle class="cls-3" cx="1419" cy="40.79" r="7.31"/><circle class="cls-3" cx="1434.28" cy="23.16" r="7.31"/><circle class="cls-3" cx="1430.33" cy="125.35" r="7.31"/><circle class="cls-3" cx="1445.62" cy="107.71" r="7.31"/><circle class="cls-3" cx="1427.79" cy="108.32" r="7.31"/><circle class="cls-3" cx="1443.08" cy="90.69" r="7.31"/><circle class="cls-3" cx="1449.33" cy="141.2" r="7.31"/><circle class="cls-3" cx="1464.62" cy="123.56" r="7.31"/><circle class="cls-3" cx="1446.79" cy="124.17" r="7.31"/><circle class="cls-3" cx="1462.08" cy="106.54" r="7.31"/><circle class="cls-3" cx="1440.54" cy="73.66" r="7.31"/><circle class="cls-3" cx="1455.82" cy="56.03" r="7.31"/><circle class="cls-3" cx="1438" cy="56.64" r="7.31"/><circle class="cls-3" cx="1453.28" cy="39" r="7.31"/><circle class="cls-3" cx="1459.54" cy="89.51" r="7.31"/><circle class="cls-3" cx="1474.82" cy="71.88" r="7.31"/><circle class="cls-3" cx="1457" cy="72.49" r="7.31"/><circle class="cls-3" cx="1472.28" cy="54.85" r="7.31"/><circle class="cls-3" cx="1370.96" cy="197.42" r="7.31"/><circle class="cls-3" cx="1386.24" cy="179.78" r="7.31"/><circle class="cls-3" cx="1368.42" cy="180.4" r="7.31"/><circle class="cls-3" cx="1383.7" cy="162.76" r="7.31"/><circle class="cls-3" cx="1389.96" cy="213.27" r="7.31"/><circle class="cls-3" cx="1405.24" cy="195.63" r="7.31"/><circle class="cls-3" cx="1387.42" cy="196.24" r="7.31"/><circle class="cls-3" cx="1402.7" cy="178.61" r="7.31"/><circle class="cls-3" cx="1381.16" cy="145.74" r="7.31"/><circle class="cls-3" cx="1396.45" cy="128.1" r="7.31"/><circle class="cls-3" cx="1378.62" cy="128.71" r="7.31"/><circle class="cls-3" cx="1393.91" cy="111.08" r="7.31"/><circle class="cls-3" cx="1400.16" cy="161.58" r="7.31"/><circle class="cls-3" cx="1415.45" cy="143.95" r="7.31"/><circle class="cls-3" cx="1397.62" cy="144.56" r="7.31"/><circle class="cls-3" cx="1412.91" cy="126.92" r="7.31"/><circle class="cls-3" cx="1408.96" cy="229.12" r="7.31"/><circle class="cls-3" cx="1424.24" cy="211.48" r="7.31"/><circle class="cls-3" cx="1406.42" cy="212.09" r="7.31"/><circle class="cls-3" cx="1421.7" cy="194.46" r="7.31"/><circle class="cls-3" cx="1427.96" cy="244.96" r="7.31"/><circle class="cls-3" cx="1443.24" cy="227.33" r="7.31"/><circle class="cls-3" cx="1425.42" cy="227.94" r="7.31"/><circle class="cls-3" cx="1440.7" cy="210.3" r="7.31"/><circle class="cls-3" cx="1419.16" cy="177.43" r="7.31"/><circle class="cls-3" cx="1434.45" cy="159.8" r="7.31"/><circle class="cls-3" cx="1416.62" cy="160.41" r="7.31"/><circle class="cls-3" cx="1431.91" cy="142.77" r="7.31"/><circle class="cls-3" cx="1438.16" cy="193.28" r="7.31"/><circle class="cls-3" cx="1453.45" cy="175.64" r="7.31"/><circle class="cls-3" cx="1435.62" cy="176.26" r="7.31"/><circle class="cls-3" cx="1450.91" cy="158.62" r="7.31"/><circle class="cls-3" cx="1328.66" cy="286.14" r="7.31"/><circle class="cls-3" cx="1343.95" cy="268.5" r="7.31"/><circle class="cls-3" cx="1326.12" cy="269.12" r="7.31"/><circle class="cls-3" cx="1341.41" cy="251.48" r="7.31"/><circle class="cls-3" cx="1347.66" cy="301.99" r="7.31"/><circle class="cls-3" cx="1362.95" cy="284.35" r="7.31"/><circle class="cls-3" cx="1345.12" cy="284.96" r="7.31"/><circle class="cls-3" cx="1360.41" cy="267.33" r="7.31"/><circle class="cls-3" cx="1338.87" cy="234.46" r="7.31"/><circle class="cls-3" cx="1354.15" cy="216.82" r="7.31"/><circle class="cls-3" cx="1336.33" cy="217.43" r="7.31"/><circle class="cls-3" cx="1351.61" cy="199.8" r="7.31"/><circle class="cls-3" cx="1357.87" cy="250.3" r="7.31"/><circle class="cls-3" cx="1373.15" cy="232.67" r="7.31"/><circle class="cls-3" cx="1355.33" cy="233.28" r="7.31"/><circle class="cls-3" cx="1370.61" cy="215.64" r="7.31"/><circle class="cls-3" cx="1366.66" cy="317.84" r="7.31"/><circle class="cls-3" cx="1381.95" cy="300.2" r="7.31"/><circle class="cls-3" cx="1364.12" cy="300.81" r="7.31"/><circle class="cls-3" cx="1379.41" cy="283.18" r="7.31"/><circle class="cls-3" cx="1385.66" cy="333.68" r="7.31"/><circle class="cls-3" cx="1400.95" cy="316.05" r="7.31"/><circle class="cls-3" cx="1383.12" cy="316.66" r="7.31"/><circle class="cls-3" cx="1398.41" cy="299.02" r="7.31"/><circle class="cls-3" cx="1376.87" cy="266.15" r="7.31"/><circle class="cls-3" cx="1392.15" cy="248.52" r="7.31"/><circle class="cls-3" cx="1374.33" cy="249.13" r="7.31"/><circle class="cls-3" cx="1389.61" cy="231.49" r="7.31"/><circle class="cls-3" cx="1395.87" cy="282" r="7.31"/><circle class="cls-3" cx="1411.15" cy="264.36" r="7.31"/><circle class="cls-3" cx="1393.33" cy="264.98" r="7.31"/><circle class="cls-3" cx="1408.61" cy="247.34" r="7.31"/><circle class="cls-3" cx="1307.29" cy="389.91" r="7.31"/><circle class="cls-3" cx="1322.57" cy="372.27" r="7.31"/><circle class="cls-3" cx="1304.75" cy="372.88" r="7.31"/><circle class="cls-3" cx="1320.03" cy="355.25" r="7.31"/><circle class="cls-3" cx="1326.29" cy="405.76" r="7.31"/><circle class="cls-3" cx="1341.57" cy="388.12" r="7.31"/><circle class="cls-3" cx="1323.75" cy="388.73" r="7.31"/><circle class="cls-3" cx="1339.03" cy="371.1" r="7.31"/><circle class="cls-3" cx="1317.49" cy="338.22" r="7.31"/><circle class="cls-3" cx="1332.78" cy="320.59" r="7.31"/><circle class="cls-3" cx="1314.95" cy="321.2" r="7.31"/><circle class="cls-3" cx="1330.24" cy="303.56" r="7.31"/><circle class="cls-3" cx="1336.49" cy="354.07" r="7.31"/><circle class="cls-3" cx="1351.78" cy="336.44" r="7.31"/><circle class="cls-3" cx="1333.95" cy="337.05" r="7.31"/><circle class="cls-3" cx="1349.24" cy="319.41" r="7.31"/><circle class="cls-3" cx="1345.29" cy="421.6" r="7.31"/><circle class="cls-3" cx="1360.57" cy="403.97" r="7.31"/><circle class="cls-3" cx="1342.75" cy="404.58" r="7.31"/><circle class="cls-3" cx="1358.03" cy="386.94" r="7.31"/><circle class="cls-3" cx="1364.29" cy="437.45" r="7.31"/><circle class="cls-3" cx="1379.57" cy="419.82" r="7.31"/><circle class="cls-3" cx="1361.75" cy="420.43" r="7.31"/><circle class="cls-3" cx="1377.03" cy="402.79" r="7.31"/><circle class="cls-3" cx="1355.49" cy="369.92" r="7.31"/><circle class="cls-3" cx="1370.78" cy="352.28" r="7.31"/><circle class="cls-3" cx="1352.95" cy="352.9" r="7.31"/><circle class="cls-3" cx="1368.24" cy="335.26" r="7.31"/><circle class="cls-3" cx="1374.49" cy="385.77" r="7.31"/><circle class="cls-3" cx="1389.78" cy="368.13" r="7.31"/><circle class="cls-3" cx="1371.95" cy="368.74" r="7.31"/><circle class="cls-3" cx="1387.24" cy="351.11" r="7.31"/><circle class="cls-3" cx="1286.08" cy="491.35" r="7.31"/><circle class="cls-3" cx="1301.37" cy="473.71" r="7.31"/><circle class="cls-3" cx="1283.54" cy="474.32" r="7.31"/><circle class="cls-3" cx="1298.83" cy="456.69" r="7.31"/><circle class="cls-3" cx="1305.08" cy="507.2" r="7.31"/><circle class="cls-3" cx="1320.37" cy="489.56" r="7.31"/><circle class="cls-3" cx="1302.54" cy="490.17" r="7.31"/><circle class="cls-3" cx="1317.83" cy="472.54" r="7.31"/><circle class="cls-3" cx="1296.29" cy="439.66" r="7.31"/><circle class="cls-3" cx="1311.57" cy="422.03" r="7.31"/><circle class="cls-3" cx="1293.75" cy="422.64" r="7.31"/><circle class="cls-3" cx="1309.03" cy="405" r="7.31"/><circle class="cls-3" cx="1315.29" cy="455.51" r="7.31"/><circle class="cls-3" cx="1330.57" cy="437.88" r="7.31"/><circle class="cls-3" cx="1312.75" cy="438.49" r="7.31"/><circle class="cls-3" cx="1328.03" cy="420.85" r="7.31"/><circle class="cls-3" cx="1324.08" cy="523.04" r="7.31"/><circle class="cls-3" cx="1339.37" cy="505.41" r="7.31"/><circle class="cls-3" cx="1321.54" cy="506.02" r="7.31"/><circle class="cls-3" cx="1336.83" cy="488.38" r="7.31"/><circle class="cls-3" cx="1343.08" cy="538.89" r="7.31"/><circle class="cls-3" cx="1358.37" cy="521.26" r="7.31"/><circle class="cls-3" cx="1340.54" cy="521.87" r="7.31"/><circle class="cls-3" cx="1355.83" cy="504.23" r="7.31"/><circle class="cls-3" cx="1334.29" cy="471.36" r="7.31"/><circle class="cls-3" cx="1349.57" cy="453.72" r="7.31"/><circle class="cls-3" cx="1331.75" cy="454.34" r="7.31"/><circle class="cls-3" cx="1347.03" cy="436.7" r="7.31"/><circle class="cls-3" cx="1353.29" cy="487.21" r="7.31"/><circle class="cls-3" cx="1368.57" cy="469.57" r="7.31"/><circle class="cls-3" cx="1350.75" cy="470.18" r="7.31"/><circle class="cls-3" cx="1366.03" cy="452.55" r="7.31"/><circle class="cls-3" cx="1264.71" cy="595.12" r="7.31"/><circle class="cls-3" cx="1280" cy="577.48" r="7.31"/><circle class="cls-3" cx="1262.17" cy="578.09" r="7.31"/><circle class="cls-3" cx="1277.46" cy="560.46" r="7.31"/><circle class="cls-3" cx="1283.71" cy="610.96" r="7.31"/><circle class="cls-3" cx="1299" cy="593.33" r="7.31"/><circle class="cls-3" cx="1281.17" cy="593.94" r="7.31"/><circle class="cls-3" cx="1296.46" cy="576.3" r="7.31"/><circle class="cls-3" cx="1274.92" cy="543.43" r="7.31"/><circle class="cls-3" cx="1290.2" cy="525.8" r="7.31"/><circle class="cls-3" cx="1272.38" cy="526.41" r="7.31"/><circle class="cls-3" cx="1287.66" cy="508.77" r="7.31"/><circle class="cls-3" cx="1293.92" cy="559.28" r="7.31"/><circle class="cls-3" cx="1309.2" cy="541.64" r="7.31"/><circle class="cls-3" cx="1291.38" cy="542.26" r="7.31"/><circle class="cls-3" cx="1306.66" cy="524.62" r="7.31"/><circle class="cls-3" cx="1302.71" cy="626.81" r="7.31"/><circle class="cls-3" cx="1318" cy="609.18" r="7.31"/><circle class="cls-3" cx="1300.17" cy="609.79" r="7.31"/><circle class="cls-3" cx="1315.46" cy="592.15" r="7.31"/><circle class="cls-3" cx="1321.71" cy="642.66" r="7.31"/><circle class="cls-3" cx="1337" cy="625.02" r="7.31"/><circle class="cls-3" cx="1319.17" cy="625.64" r="7.31"/><circle class="cls-3" cx="1334.46" cy="608" r="7.31"/><circle class="cls-3" cx="1312.92" cy="575.13" r="7.31"/><circle class="cls-3" cx="1328.2" cy="557.49" r="7.31"/><circle class="cls-3" cx="1310.38" cy="558.1" r="7.31"/><circle class="cls-3" cx="1325.66" cy="540.47" r="7.31"/><circle class="cls-3" cx="1331.92" cy="590.98" r="7.31"/><circle class="cls-3" cx="1347.2" cy="573.34" r="7.31"/><circle class="cls-3" cx="1329.38" cy="573.95" r="7.31"/><circle class="cls-3" cx="1344.66" cy="556.32" r="7.31"/><circle class="cls-3" cx="1222.41" cy="683.84" r="7.31"/><circle class="cls-3" cx="1237.7" cy="666.2" r="7.31"/><circle class="cls-3" cx="1219.87" cy="666.81" r="7.31"/><circle class="cls-3" cx="1235.16" cy="649.18" r="7.31"/><circle class="cls-3" cx="1241.41" cy="699.68" r="7.31"/><circle class="cls-3" cx="1256.7" cy="682.05" r="7.31"/><circle class="cls-3" cx="1238.87" cy="682.66" r="7.31"/><circle class="cls-3" cx="1254.16" cy="665.02" r="7.31"/><circle class="cls-3" cx="1232.62" cy="632.15" r="7.31"/><circle class="cls-3" cx="1247.9" cy="614.52" r="7.31"/><circle class="cls-3" cx="1230.08" cy="615.13" r="7.31"/><circle class="cls-3" cx="1245.36" cy="597.49" r="7.31"/><circle class="cls-3" cx="1251.62" cy="648" r="7.31"/><circle class="cls-3" cx="1266.9" cy="630.36" r="7.31"/><circle class="cls-3" cx="1249.08" cy="630.98" r="7.31"/><circle class="cls-3" cx="1264.36" cy="613.34" r="7.31"/><circle class="cls-3" cx="1260.41" cy="715.53" r="7.31"/><circle class="cls-3" cx="1275.7" cy="697.9" r="7.31"/><circle class="cls-3" cx="1257.87" cy="698.51" r="7.31"/><circle class="cls-3" cx="1273.16" cy="680.87" r="7.31"/><circle class="cls-3" cx="1279.41" cy="731.38" r="7.31"/><circle class="cls-3" cx="1294.7" cy="713.74" r="7.31"/><circle class="cls-3" cx="1276.87" cy="714.36" r="7.31"/><circle class="cls-3" cx="1292.16" cy="696.72" r="7.31"/><circle class="cls-3" cx="1270.62" cy="663.85" r="7.31"/><circle class="cls-3" cx="1285.9" cy="646.21" r="7.31"/><circle class="cls-3" cx="1268.08" cy="646.82" r="7.31"/><circle class="cls-3" cx="1283.36" cy="629.19" r="7.31"/><circle class="cls-3" cx="1289.62" cy="679.7" r="7.31"/><circle class="cls-3" cx="1304.9" cy="662.06" r="7.31"/><circle class="cls-3" cx="1287.08" cy="662.67" r="7.31"/><circle class="cls-3" cx="1302.36" cy="645.04" r="7.31"/><circle class="cls-3" cx="1201.04" cy="787.6" r="7.31"/><circle class="cls-3" cx="1216.33" cy="769.97" r="7.31"/><circle class="cls-3" cx="1198.5" cy="770.58" r="7.31"/><circle class="cls-3" cx="1213.79" cy="752.94" r="7.31"/><circle class="cls-3" cx="1220.04" cy="803.45" r="7.31"/><circle class="cls-3" cx="1211.51" cy="817.01" r="7.31"/><circle class="cls-3" cx="1201.51" cy="803.01" r="7.31"/><circle class="cls-3" cx="1196.51" cy="823.01" r="7.31"/><circle class="cls-3" cx="1235.32" cy="785.82" r="7.31"/><circle class="cls-3" cx="1217.5" cy="786.43" r="7.31"/><circle class="cls-3" cx="1232.78" cy="768.79" r="7.31"/><circle class="cls-3" cx="1211.25" cy="735.92" r="7.31"/><circle class="cls-3" cx="1226.53" cy="718.28" r="7.31"/><circle class="cls-3" cx="1208.71" cy="718.9" r="7.31"/><circle class="cls-3" cx="1223.99" cy="701.26" r="7.31"/><circle class="cls-3" cx="1230.24" cy="751.77" r="7.31"/><circle class="cls-3" cx="1245.53" cy="734.13" r="7.31"/><circle class="cls-3" cx="1227.7" cy="734.74" r="7.31"/><circle class="cls-3" cx="1242.99" cy="717.11" r="7.31"/><circle class="cls-3" cx="1237.6" cy="821.19" r="7.31"/><circle class="cls-3" cx="1254.32" cy="801.66" r="7.31"/><circle class="cls-3" cx="1236.5" cy="802.28" r="7.31"/><circle class="cls-3" cx="1251.78" cy="784.64" r="7.31"/><circle class="cls-3" cx="1258.04" cy="835.15" r="7.31"/><circle class="cls-3" cx="1273.32" cy="817.51" r="7.31"/><circle class="cls-3" cx="1255.5" cy="818.12" r="7.31"/><circle class="cls-3" cx="1270.78" cy="800.49" r="7.31"/><circle class="cls-3" cx="1249.24" cy="767.62" r="7.31"/><circle class="cls-3" cx="1264.53" cy="749.98" r="7.31"/><circle class="cls-3" cx="1246.7" cy="750.59" r="7.31"/><circle class="cls-3" cx="1261.99" cy="732.96" r="7.31"/><circle class="cls-3" cx="1268.24" cy="783.46" r="7.31"/><circle class="cls-3" cx="1283.53" cy="765.83" r="7.31"/><circle class="cls-3" cx="1265.7" cy="766.44" r="7.31"/><circle class="cls-3" cx="1280.99" cy="748.8" r="7.31"/><circle class="cls-3" cx="445" cy="834.91" r="7.31"/><circle class="cls-3" cx="466.22" cy="844.63" r="7.31"/><circle class="cls-3" cx="460.63" cy="827.69" r="7.31"/><circle class="cls-3" cx="481.85" cy="837.41" r="7.31"/><circle class="cls-3" cx="435.12" cy="857.59" r="7.31"/><circle class="cls-3" cx="456.34" cy="867.31" r="7.31"/><circle class="cls-3" cx="450.75" cy="850.37" r="7.31"/><circle class="cls-3" cx="471.96" cy="860.1" r="7.31"/><circle class="cls-3" cx="497.47" cy="830.2" r="7.31"/><circle class="cls-3" cx="518.69" cy="839.92" r="7.31"/><circle class="cls-3" cx="513.1" cy="822.99" r="7.31"/><circle class="cls-3" cx="534.32" cy="832.71" r="7.31"/><circle class="cls-3" cx="487.59" cy="852.88" r="7.31"/><circle class="cls-3" cx="508.81" cy="862.61" r="7.31"/><circle class="cls-3" cx="503.22" cy="845.67" r="7.31"/><circle class="cls-3" cx="524.44" cy="855.39" r="7.31"/><circle class="cls-3" cx="425.24" cy="880.27" r="7.31"/><circle class="cls-3" cx="446.45" cy="889.99" r="7.31"/><circle class="cls-3" cx="440.87" cy="873.06" r="7.31"/><circle class="cls-3" cx="462.08" cy="882.78" r="7.31"/><circle class="cls-3" cx="415.36" cy="902.95" r="7.31"/><circle class="cls-3" cx="436.57" cy="912.68" r="7.31"/><circle class="cls-3" cx="430.99" cy="895.74" r="7.31"/><circle class="cls-3" cx="452.2" cy="905.46" r="7.31"/><circle class="cls-3" cx="477.71" cy="875.57" r="7.31"/><circle class="cls-3" cx="498.93" cy="885.29" r="7.31"/><circle class="cls-3" cx="493.34" cy="868.35" r="7.31"/><circle class="cls-3" cx="514.55" cy="878.08" r="7.31"/><circle class="cls-3" cx="467.83" cy="898.25" r="7.31"/><circle class="cls-3" cx="489.04" cy="907.97" r="7.31"/><circle class="cls-3" cx="483.46" cy="891.04" r="7.31"/><circle class="cls-3" cx="504.67" cy="900.76" r="7.31"/><circle class="cls-3" cx="339.41" cy="843.5" r="7.31"/><circle class="cls-3" cx="360.62" cy="853.22" r="7.31"/><circle class="cls-3" cx="355.03" cy="836.29" r="7.31"/><circle class="cls-3" cx="376.25" cy="846.01" r="7.31"/><circle class="cls-3" cx="329.52" cy="866.18" r="7.31"/><circle class="cls-3" cx="350.74" cy="875.91" r="7.31"/><circle class="cls-3" cx="345.15" cy="858.97" r="7.31"/><circle class="cls-3" cx="366.37" cy="868.69" r="7.31"/><circle class="cls-3" cx="391.88" cy="838.8" r="7.31"/><circle class="cls-3" cx="413.09" cy="848.52" r="7.31"/><circle class="cls-3" cx="407.51" cy="831.58" r="7.31"/><circle class="cls-3" cx="428.72" cy="841.31" r="7.31"/><circle class="cls-3" cx="382" cy="861.48" r="7.31"/><circle class="cls-3" cx="403.21" cy="871.2" r="7.31"/><circle class="cls-3" cx="397.62" cy="854.27" r="7.31"/><circle class="cls-3" cx="418.84" cy="863.99" r="7.31"/><circle class="cls-3" cx="319.64" cy="888.87" r="7.31"/><circle class="cls-3" cx="340.86" cy="898.59" r="7.31"/><circle class="cls-3" cx="335.27" cy="881.65" r="7.31"/><circle class="cls-3" cx="356.49" cy="891.38" r="7.31"/><circle class="cls-3" cx="309.76" cy="911.55" r="7.31"/><circle class="cls-3" cx="330.98" cy="921.27" r="7.31"/><circle class="cls-3" cx="325.39" cy="904.34" r="7.31"/><circle class="cls-3" cx="346.6" cy="914.06" r="7.31"/><circle class="cls-3" cx="372.11" cy="884.16" r="7.31"/><circle class="cls-3" cx="393.33" cy="893.89" r="7.31"/><circle class="cls-3" cx="387.74" cy="876.95" r="7.31"/><circle class="cls-3" cx="408.96" cy="886.67" r="7.31"/><circle class="cls-3" cx="362.23" cy="906.85" r="7.31"/><circle class="cls-3" cx="383.45" cy="916.57" r="7.31"/><circle class="cls-3" cx="377.86" cy="899.63" r="7.31"/><circle class="cls-3" cx="399.08" cy="909.35" r="7.31"/><circle class="cls-3" cx="242.38" cy="827.79" r="7.31"/><circle class="cls-3" cx="263.6" cy="837.51" r="7.31"/><circle class="cls-3" cx="258.01" cy="820.58" r="7.31"/><circle class="cls-3" cx="279.23" cy="830.3" r="7.31"/><circle class="cls-3" cx="232.5" cy="850.47" r="7.31"/><circle class="cls-3" cx="253.72" cy="860.19" r="7.31"/><circle class="cls-3" cx="248.13" cy="843.26" r="7.31"/><circle class="cls-3" cx="269.34" cy="852.98" r="7.31"/><circle class="cls-3" cx="294.85" cy="823.08" r="7.31"/><circle class="cls-3" cx="316.07" cy="832.81" r="7.31"/><circle class="cls-3" cx="310.48" cy="815.87" r="7.31"/><circle class="cls-3" cx="331.7" cy="825.59" r="7.31"/><circle class="cls-3" cx="284.97" cy="845.77" r="7.31"/><circle class="cls-3" cx="306.19" cy="855.49" r="7.31"/><circle class="cls-3" cx="300.6" cy="838.55" r="7.31"/><circle class="cls-3" cx="321.82" cy="848.28" r="7.31"/><circle class="cls-3" cx="222.62" cy="873.15" r="7.31"/><circle class="cls-3" cx="243.83" cy="882.88" r="7.31"/><circle class="cls-3" cx="238.25" cy="865.94" r="7.31"/><circle class="cls-3" cx="259.46" cy="875.66" r="7.31"/><circle class="cls-3" cx="212.74" cy="895.84" r="7.31"/><circle class="cls-3" cx="233.95" cy="905.56" r="7.31"/><circle class="cls-3" cx="228.37" cy="888.62" r="7.31"/><circle class="cls-3" cx="249.58" cy="898.35" r="7.31"/><circle class="cls-3" cx="275.09" cy="868.45" r="7.31"/><circle class="cls-3" cx="296.31" cy="878.17" r="7.31"/><circle class="cls-3" cx="290.72" cy="861.24" r="7.31"/><circle class="cls-3" cx="311.93" cy="870.96" r="7.31"/><circle class="cls-3" cx="265.21" cy="891.13" r="7.31"/><circle class="cls-3" cx="286.42" cy="900.86" r="7.31"/><circle class="cls-3" cx="280.84" cy="883.92" r="7.31"/><circle class="cls-3" cx="302.05" cy="893.64" r="7.31"/><circle class="cls-3" cx="136.79" cy="836.39" r="7.31"/><circle class="cls-3" cx="158" cy="846.11" r="7.31"/><circle class="cls-3" cx="152.41" cy="829.17" r="7.31"/><circle class="cls-3" cx="173.63" cy="838.89" r="7.31"/><circle class="cls-3" cx="126.9" cy="859.07" r="7.31"/><circle class="cls-3" cx="148.12" cy="868.79" r="7.31"/><circle class="cls-3" cx="142.53" cy="851.85" r="7.31"/><circle class="cls-3" cx="163.75" cy="861.58" r="7.31"/><circle class="cls-3" cx="189.26" cy="831.68" r="7.31"/><circle class="cls-3" cx="210.47" cy="841.4" r="7.31"/><circle class="cls-3" cx="204.89" cy="824.47" r="7.31"/><circle class="cls-3" cx="226.1" cy="834.19" r="7.31"/><circle class="cls-3" cx="179.38" cy="854.36" r="7.31"/><circle class="cls-3" cx="200.59" cy="864.09" r="7.31"/><circle class="cls-3" cx="195" cy="847.15" r="7.31"/><circle class="cls-3" cx="216.22" cy="856.87" r="7.31"/><circle class="cls-3" cx="117.02" cy="881.75" r="7.31"/><circle class="cls-3" cx="138.24" cy="891.47" r="7.31"/><circle class="cls-3" cx="132.65" cy="874.54" r="7.31"/><circle class="cls-3" cx="153.87" cy="884.26" r="7.31"/><circle class="cls-3" cx="107.14" cy="904.43" r="7.31"/><circle class="cls-3" cx="128.36" cy="914.16" r="7.31"/><circle class="cls-3" cx="122.77" cy="897.22" r="7.31"/><circle class="cls-3" cx="143.98" cy="906.94" r="7.31"/><circle class="cls-3" cx="169.49" cy="877.05" r="7.31"/><circle class="cls-3" cx="190.71" cy="886.77" r="7.31"/><circle class="cls-3" cx="185.12" cy="869.83" r="7.31"/><circle class="cls-3" cx="206.34" cy="879.55" r="7.31"/><circle class="cls-3" cx="159.61" cy="899.73" r="7.31"/><circle class="cls-3" cx="180.83" cy="909.45" r="7.31"/><circle class="cls-3" cx="175.24" cy="892.51" r="7.31"/><circle class="cls-3" cx="196.46" cy="902.24" r="7.31"/><circle class="cls-3" cx="33.47" cy="844.49" r="7.31"/><circle class="cls-3" cx="54.69" cy="854.21" r="7.31"/><circle class="cls-3" cx="49.1" cy="837.27" r="7.31"/><circle class="cls-3" cx="70.31" cy="847" r="7.31"/><circle class="cls-3" cx="23.59" cy="867.17" r="7.31"/><circle class="cls-3" cx="44.8" cy="876.89" r="7.31"/><circle class="cls-3" cx="39.22" cy="859.96" r="7.31"/><circle class="cls-3" cx="60.43" cy="869.68" r="7.31"/><circle class="cls-3" cx="85.94" cy="839.78" r="7.31"/><circle class="cls-3" cx="107.16" cy="849.5" r="7.31"/><circle class="cls-3" cx="101.57" cy="832.57" r="7.31"/><circle class="cls-3" cx="122.78" cy="842.29" r="7.31"/><circle class="cls-3" cx="76.06" cy="862.46" r="7.31"/><circle class="cls-3" cx="97.27" cy="872.19" r="7.31"/><circle class="cls-3" cx="91.69" cy="855.25" r="7.31"/><circle class="cls-3" cx="112.9" cy="864.97" r="7.31"/><circle class="cls-3" cx="13.71" cy="889.85" r="7.31"/><circle class="cls-3" cx="34.92" cy="899.57" r="7.31"/><circle class="cls-3" cx="29.33" cy="882.64" r="7.31"/><circle class="cls-3" cx="50.55" cy="892.36" r="7.31"/><circle class="cls-3" cx="821.01" cy="914.62" r="7.31"/><circle class="cls-3" cx="25.04" cy="922.26" r="7.31"/><circle class="cls-3" cx="19.45" cy="905.32" r="7.31"/><circle class="cls-3" cx="40.67" cy="915.04" r="7.31"/><circle class="cls-3" cx="66.18" cy="885.15" r="7.31"/><circle class="cls-3" cx="87.39" cy="894.87" r="7.31"/><circle class="cls-3" cx="81.81" cy="877.93" r="7.31"/><circle class="cls-3" cx="103.02" cy="887.66" r="7.31"/><circle class="cls-3" cx="56.3" cy="907.83" r="7.31"/><circle class="cls-3" cx="77.51" cy="917.55" r="7.31"/><circle class="cls-3" cx="71.92" cy="900.62" r="7.31"/><circle class="cls-3" cx="93.14" cy="910.34" r="7.31"/><circle class="cls-3" cx="745.06" cy="855.17" r="7.31"/><circle class="cls-3" cx="766.28" cy="864.89" r="7.31"/><circle class="cls-3" cx="760.69" cy="847.96" r="7.31"/><circle class="cls-3" cx="781.91" cy="857.68" r="7.31"/><circle class="cls-3" cx="735.18" cy="877.85" r="7.31"/><circle class="cls-3" cx="756.4" cy="887.57" r="7.31"/><circle class="cls-3" cx="750.81" cy="870.64" r="7.31"/><circle class="cls-3" cx="772.02" cy="880.36" r="7.31"/><circle class="cls-3" cx="797.53" cy="850.46" r="7.31"/><circle class="cls-3" cx="818.75" cy="860.19" r="7.31"/><circle class="cls-3" cx="813.16" cy="843.25" r="7.31"/><circle class="cls-3" cx="17.19" cy="850.89" r="7.31"/><circle class="cls-3" cx="787.65" cy="873.15" r="7.31"/><circle class="cls-3" cx="808.87" cy="882.87" r="7.31"/><circle class="cls-3" cx="803.28" cy="865.93" r="7.31"/><circle class="cls-3" cx="7.31" cy="873.57" r="7.31"/><circle class="cls-3" cx="1208.63" cy="836.39" r="7.31"/><circle class="cls-3" cx="1228.92" cy="845.97" r="7.31"/><circle class="cls-3" cx="1224.26" cy="829.17" r="7.31"/><circle class="cls-3" cx="1241.45" cy="836.58" r="7.31"/><circle class="cls-3" cx="1198.75" cy="859.07" r="7.31"/><circle class="cls-3" cx="1219.96" cy="868.79" r="7.31"/><circle class="cls-3" cx="1214.38" cy="851.85" r="7.31"/><circle class="cls-3" cx="1235.59" cy="861.58" r="7.31"/><circle class="cls-3" cx="1248.75" cy="851.19" r="7.31"/><circle class="cls-3" cx="1188.87" cy="881.75" r="7.31"/><circle class="cls-3" cx="1210.08" cy="891.47" r="7.31"/><circle class="cls-3" cx="1204.49" cy="874.54" r="7.31"/><circle class="cls-3" cx="1225.71" cy="884.26" r="7.31"/><circle class="cls-3" cx="1178.98" cy="904.43" r="7.31"/><circle class="cls-3" cx="1200.2" cy="914.16" r="7.31"/><circle class="cls-3" cx="1194.61" cy="897.22" r="7.31"/><circle class="cls-3" cx="1215.83" cy="906.94" r="7.31"/><circle class="cls-3" cx="1249.8" cy="871.02" r="7.31"/><circle class="cls-3" cx="1231.46" cy="899.73" r="7.31"/><circle class="cls-3" cx="1252.67" cy="909.45" r="7.31"/><circle class="cls-3" cx="1242.49" cy="886.67" r="7.31"/><circle class="cls-3" cx="1105.31" cy="844.49" r="7.31"/><circle class="cls-3" cx="1126.53" cy="854.21" r="7.31"/><circle class="cls-3" cx="1120.94" cy="837.27" r="7.31"/><circle class="cls-3" cx="1142.16" cy="847" r="7.31"/><circle class="cls-3" cx="1095.43" cy="867.17" r="7.31"/><circle class="cls-3" cx="1116.65" cy="876.89" r="7.31"/><circle class="cls-3" cx="1111.06" cy="859.96" r="7.31"/><circle class="cls-3" cx="1132.28" cy="869.68" r="7.31"/><circle class="cls-3" cx="1157.79" cy="839.78" r="7.31"/><circle class="cls-3" cx="1179" cy="849.5" r="7.31"/><circle class="cls-3" cx="1173.41" cy="832.57" r="7.31"/><circle class="cls-3" cx="1194.63" cy="842.29" r="7.31"/><circle class="cls-3" cx="1147.9" cy="862.46" r="7.31"/><circle class="cls-3" cx="1169.12" cy="872.19" r="7.31"/><circle class="cls-3" cx="1163.53" cy="855.25" r="7.31"/><circle class="cls-3" cx="1184.75" cy="864.97" r="7.31"/><circle class="cls-3" cx="1085.55" cy="889.85" r="7.31"/><circle class="cls-3" cx="1106.77" cy="899.57" r="7.31"/><circle class="cls-3" cx="1101.18" cy="882.64" r="7.31"/><circle class="cls-3" cx="1122.39" cy="892.36" r="7.31"/><circle class="cls-3" cx="1096.88" cy="922.26" r="7.31"/><circle class="cls-3" cx="1091.3" cy="905.32" r="7.31"/><circle class="cls-3" cx="1112.51" cy="915.04" r="7.31"/><circle class="cls-3" cx="1138.02" cy="885.15" r="7.31"/><circle class="cls-3" cx="1159.24" cy="894.87" r="7.31"/><circle class="cls-3" cx="1153.65" cy="877.93" r="7.31"/><circle class="cls-3" cx="1174.87" cy="887.66" r="7.31"/><circle class="cls-3" cx="1128.14" cy="907.83" r="7.31"/><circle class="cls-3" cx="1149.36" cy="917.55" r="7.31"/><circle class="cls-3" cx="1143.77" cy="900.62" r="7.31"/><circle class="cls-3" cx="1164.98" cy="910.34" r="7.31"/><circle class="cls-3" cx="1089.03" cy="850.89" r="7.31"/><circle class="cls-3" cx="1079.15" cy="873.57" r="7.31"/><circle class="cls-3" cx="725.3" cy="900.53" r="7.31"/><circle class="cls-3" cx="746.51" cy="910.26" r="7.31"/><circle class="cls-3" cx="740.93" cy="893.32" r="7.31"/><circle class="cls-3" cx="762.14" cy="903.04" r="7.31"/><circle class="cls-3" cx="715.42" cy="923.22" r="7.31"/><circle class="cls-3" cx="736.63" cy="932.94" r="7.31"/><circle class="cls-3" cx="731.05" cy="916" r="7.31"/><circle class="cls-3" cx="752.26" cy="925.73" r="7.31"/><circle class="cls-3" cx="777.77" cy="895.83" r="7.31"/><circle class="cls-3" cx="798.99" cy="905.55" r="7.31"/><circle class="cls-3" cx="793.4" cy="888.62" r="7.31"/><circle class="cls-3" cx="814.61" cy="898.34" r="7.31"/><circle class="cls-3" cx="767.89" cy="918.51" r="7.31"/><circle class="cls-3" cx="789.1" cy="928.24" r="7.31"/><circle class="cls-3" cx="783.52" cy="911.3" r="7.31"/><circle class="cls-3" cx="804.73" cy="921.02" r="7.31"/><circle class="cls-3" cx="648.04" cy="839.46" r="7.31"/><circle class="cls-3" cx="669.25" cy="849.18" r="7.31"/><circle class="cls-3" cx="663.67" cy="832.24" r="7.31"/><circle class="cls-3" cx="684.88" cy="841.97" r="7.31"/><circle class="cls-3" cx="638.16" cy="862.14" r="7.31"/><circle class="cls-3" cx="659.37" cy="871.86" r="7.31"/><circle class="cls-3" cx="653.79" cy="854.93" r="7.31"/><circle class="cls-3" cx="675" cy="864.65" r="7.31"/><circle class="cls-3" cx="700.51" cy="834.75" r="7.31"/><circle class="cls-3" cx="721.73" cy="844.47" r="7.31"/><circle class="cls-3" cx="716.14" cy="827.54" r="7.31"/><circle class="cls-3" cx="737.35" cy="837.26" r="7.31"/><circle class="cls-3" cx="690.63" cy="857.43" r="7.31"/><circle class="cls-3" cx="711.84" cy="867.16" r="7.31"/><circle class="cls-3" cx="706.26" cy="850.22" r="7.31"/><circle class="cls-3" cx="727.47" cy="859.94" r="7.31"/><circle class="cls-3" cx="628.28" cy="884.82" r="7.31"/><circle class="cls-3" cx="649.49" cy="894.54" r="7.31"/><circle class="cls-3" cx="643.9" cy="877.61" r="7.31"/><circle class="cls-3" cx="665.12" cy="887.33" r="7.31"/><circle class="cls-3" cx="618.39" cy="907.5" r="7.31"/><circle class="cls-3" cx="639.61" cy="917.23" r="7.31"/><circle class="cls-3" cx="634.02" cy="900.29" r="7.31"/><circle class="cls-3" cx="655.24" cy="910.01" r="7.31"/><circle class="cls-3" cx="680.75" cy="880.12" r="7.31"/><circle class="cls-3" cx="701.96" cy="889.84" r="7.31"/><circle class="cls-3" cx="696.38" cy="872.9" r="7.31"/><circle class="cls-3" cx="717.59" cy="882.63" r="7.31"/><circle class="cls-3" cx="670.87" cy="902.8" r="7.31"/><circle class="cls-3" cx="692.08" cy="912.52" r="7.31"/><circle class="cls-3" cx="686.49" cy="895.59" r="7.31"/><circle class="cls-3" cx="707.71" cy="905.31" r="7.31"/><circle class="cls-3" cx="542.44" cy="848.05" r="7.31"/><circle class="cls-3" cx="563.66" cy="857.78" r="7.31"/><circle class="cls-3" cx="558.07" cy="840.84" r="7.31"/><circle class="cls-3" cx="579.29" cy="850.56" r="7.31"/><circle class="cls-3" cx="532.56" cy="870.74" r="7.31"/><circle class="cls-3" cx="553.78" cy="880.46" r="7.31"/><circle class="cls-3" cx="548.19" cy="863.52" r="7.31"/><circle class="cls-3" cx="569.4" cy="873.24" r="7.31"/><circle class="cls-3" cx="594.91" cy="843.35" r="7.31"/><circle class="cls-3" cx="616.13" cy="853.07" r="7.31"/><circle class="cls-3" cx="610.54" cy="836.13" r="7.31"/><circle class="cls-3" cx="631.76" cy="845.86" r="7.31"/><circle class="cls-3" cx="585.03" cy="866.03" r="7.31"/><circle class="cls-3" cx="606.25" cy="875.75" r="7.31"/><circle class="cls-3" cx="600.66" cy="858.82" r="7.31"/><circle class="cls-3" cx="621.88" cy="868.54" r="7.31"/><circle class="cls-3" cx="522.68" cy="893.42" r="7.31"/><circle class="cls-3" cx="543.89" cy="903.14" r="7.31"/><circle class="cls-3" cx="538.31" cy="886.2" r="7.31"/><circle class="cls-3" cx="559.52" cy="895.93" r="7.31"/><circle class="cls-3" cx="512.8" cy="916.1" r="7.31"/><circle class="cls-3" cx="534.01" cy="925.82" r="7.31"/><circle class="cls-3" cx="528.43" cy="908.89" r="7.31"/><circle class="cls-3" cx="549.64" cy="918.61" r="7.31"/><circle class="cls-3" cx="575.15" cy="888.71" r="7.31"/><circle class="cls-3" cx="596.37" cy="898.44" r="7.31"/><circle class="cls-3" cx="590.78" cy="881.5" r="7.31"/><circle class="cls-3" cx="611.99" cy="891.22" r="7.31"/><circle class="cls-3" cx="565.27" cy="911.4" r="7.31"/><circle class="cls-3" cx="586.48" cy="921.12" r="7.31"/><circle class="cls-3" cx="580.9" cy="904.18" r="7.31"/><circle class="cls-3" cx="602.11" cy="913.91" r="7.31"/><circle class="cls-3" cx="1074.62" cy="914.62" r="7.31"/><circle class="cls-3" cx="998.67" cy="855.17" r="7.31"/><circle class="cls-3" cx="1019.89" cy="864.89" r="7.31"/><circle class="cls-3" cx="1014.3" cy="847.96" r="7.31"/><circle class="cls-3" cx="1035.52" cy="857.68" r="7.31"/><circle class="cls-3" cx="988.79" cy="877.85" r="7.31"/><circle class="cls-3" cx="1010.01" cy="887.57" r="7.31"/><circle class="cls-3" cx="1004.42" cy="870.64" r="7.31"/><circle class="cls-3" cx="1025.63" cy="880.36" r="7.31"/><circle class="cls-3" cx="1051.14" cy="850.46" r="7.31"/><circle class="cls-3" cx="1072.36" cy="860.19" r="7.31"/><circle class="cls-3" cx="1066.77" cy="843.25" r="7.31"/><circle class="cls-3" cx="1041.26" cy="873.15" r="7.31"/><circle class="cls-3" cx="1062.48" cy="882.87" r="7.31"/><circle class="cls-3" cx="1056.89" cy="865.93" r="7.31"/><circle class="cls-3" cx="978.91" cy="900.53" r="7.31"/><circle class="cls-3" cx="1000.13" cy="910.26" r="7.31"/><circle class="cls-3" cx="994.54" cy="893.32" r="7.31"/><circle class="cls-3" cx="1015.75" cy="903.04" r="7.31"/><circle class="cls-3" cx="969.03" cy="923.22" r="7.31"/><circle class="cls-3" cx="990.24" cy="932.94" r="7.31"/><circle class="cls-3" cx="984.66" cy="916" r="7.31"/><circle class="cls-3" cx="1005.87" cy="925.73" r="7.31"/><circle class="cls-3" cx="1031.38" cy="895.83" r="7.31"/><circle class="cls-3" cx="1052.6" cy="905.55" r="7.31"/><circle class="cls-3" cx="1047.01" cy="888.62" r="7.31"/><circle class="cls-3" cx="1068.22" cy="898.34" r="7.31"/><circle class="cls-3" cx="1021.5" cy="918.51" r="7.31"/><circle class="cls-3" cx="1042.71" cy="928.24" r="7.31"/><circle class="cls-3" cx="1037.13" cy="911.3" r="7.31"/><circle class="cls-3" cx="1058.34" cy="921.02" r="7.31"/><circle class="cls-3" cx="901.65" cy="839.46" r="7.31"/><circle class="cls-3" cx="922.87" cy="849.18" r="7.31"/><circle class="cls-3" cx="917.28" cy="832.24" r="7.31"/><circle class="cls-3" cx="938.49" cy="841.97" r="7.31"/><circle class="cls-3" cx="891.77" cy="862.14" r="7.31"/><circle class="cls-3" cx="912.98" cy="871.86" r="7.31"/><circle class="cls-3" cx="907.4" cy="854.93" r="7.31"/><circle class="cls-3" cx="928.61" cy="864.65" r="7.31"/><circle class="cls-3" cx="954.12" cy="834.75" r="7.31"/><circle class="cls-3" cx="975.34" cy="844.47" r="7.31"/><circle class="cls-3" cx="969.75" cy="827.54" r="7.31"/><circle class="cls-3" cx="990.96" cy="837.26" r="7.31"/><circle class="cls-3" cx="944.24" cy="857.43" r="7.31"/><circle class="cls-3" cx="965.45" cy="867.16" r="7.31"/><circle class="cls-3" cx="959.87" cy="850.22" r="7.31"/><circle class="cls-3" cx="981.08" cy="859.94" r="7.31"/><circle class="cls-3" cx="881.89" cy="884.82" r="7.31"/><circle class="cls-3" cx="903.1" cy="894.54" r="7.31"/><circle class="cls-3" cx="897.51" cy="877.61" r="7.31"/><circle class="cls-3" cx="918.73" cy="887.33" r="7.31"/><circle class="cls-3" cx="872" cy="907.5" r="7.31"/><circle class="cls-3" cx="893.22" cy="917.23" r="7.31"/><circle class="cls-3" cx="887.63" cy="900.29" r="7.31"/><circle class="cls-3" cx="908.85" cy="910.01" r="7.31"/><circle class="cls-3" cx="934.36" cy="880.12" r="7.31"/><circle class="cls-3" cx="955.57" cy="889.84" r="7.31"/><circle class="cls-3" cx="949.99" cy="872.9" r="7.31"/><circle class="cls-3" cx="971.2" cy="882.63" r="7.31"/><circle class="cls-3" cx="924.48" cy="902.8" r="7.31"/><circle class="cls-3" cx="945.69" cy="912.52" r="7.31"/><circle class="cls-3" cx="940.1" cy="895.59" r="7.31"/><circle class="cls-3" cx="961.32" cy="905.31" r="7.31"/><circle class="cls-3" cx="832.9" cy="850.56" r="7.31"/><circle class="cls-3" cx="823.01" cy="873.24" r="7.31"/><circle class="cls-3" cx="848.52" cy="843.35" r="7.31"/><circle class="cls-3" cx="869.74" cy="853.07" r="7.31"/><circle class="cls-3" cx="864.15" cy="836.13" r="7.31"/><circle class="cls-3" cx="885.37" cy="845.86" r="7.31"/><circle class="cls-3" cx="838.64" cy="866.03" r="7.31"/><circle class="cls-3" cx="859.86" cy="875.75" r="7.31"/><circle class="cls-3" cx="854.27" cy="858.82" r="7.31"/><circle class="cls-3" cx="875.49" cy="868.54" r="7.31"/><circle class="cls-3" cx="828.76" cy="888.71" r="7.31"/><circle class="cls-3" cx="849.98" cy="898.44" r="7.31"/><circle class="cls-3" cx="844.39" cy="881.5" r="7.31"/><circle class="cls-3" cx="865.6" cy="891.22" r="7.31"/><circle class="cls-3" cx="840.09" cy="921.12" r="7.31"/><circle class="cls-3" cx="834.51" cy="904.18" r="7.31"/><circle class="cls-3" cx="855.72" cy="913.91" r="7.31"/></g><polygon class="cls-4" points="1185.43 851.51 139.51 851.51 280.51 491.78 1366.36 166.36 1185.43 851.51"/><g class="cls-5"><polygon class="cls-6" points="198.49 782.1 213.84 737.87 312.28 772.2 296.92 816.43 198.49 782.1"/><polygon class="cls-6" points="307.04 925.37 284.59 884.3 375.98 834.08 398.44 875.15 307.04 925.37"/><polygon class="cls-6" points="364.16 630.52 348.76 586.31 447.16 551.87 462.56 596.09 364.16 630.52"/><rect class="cls-6" x="-30.89" y="563.15" width="46.83" height="104.22" transform="translate(733.22 829.67) rotate(94.85)"/><polygon class="cls-6" points="182.59 621.21 196.45 576.48 295.98 607.47 282.13 652.2 182.59 621.21"/><polygon class="cls-6" points="401.5 761.98 439.5 734.74 500.11 819.74 462.1 846.98 401.5 761.98"/><polygon class="cls-6" points="619.39 582.03 645.18 542.98 732.09 600.65 706.3 639.71 619.39 582.03"/><rect class="cls-6" x="498.25" y="651.48" width="46.83" height="104.22" transform="translate(1395.12 398.23) rotate(94.85)"/><polygon class="cls-6" points="533.55 699.7 547.41 654.97 646.95 685.96 633.09 730.68 533.55 699.7"/><polygon class="cls-6" points="503.85 534.4 481.4 493.33 572.79 443.11 595.25 484.18 503.85 534.4"/><polygon class="cls-6" points="361.65 506.34 333.38 469.05 416.34 405.82 444.62 443.11 361.65 506.34"/><polygon class="cls-6" points="685.08 327.81 712.19 289.67 797.06 350.31 769.95 388.45 685.08 327.81"/><polygon class="cls-6" points="689.73 488.26 667.78 446.91 759.79 397.84 781.74 439.19 689.73 488.26"/><polygon class="cls-6" points="541.69 417.75 526.29 373.53 624.69 339.09 640.09 383.31 541.69 417.75"/><polygon class="cls-6" points="865.13 363.24 836.85 325.96 919.82 262.72 948.1 300.01 865.13 363.24"/><polygon class="cls-6" points="173.95 556.77 160.04 512.06 259.54 480.97 273.44 525.68 173.95 556.77"/><polygon class="cls-6" points="866.77 767.95 882.12 723.72 980.55 758.05 965.2 802.28 866.77 767.95"/><polygon class="cls-6" points="998.53 890.17 976.07 849.1 1067.46 798.88 1089.92 839.95 998.53 890.17"/><polygon class="cls-6" points="809.31 915.94 787.37 874.59 879.38 825.52 901.32 866.87 809.31 915.94"/><polygon class="cls-6" points="996.69 736.92 968.41 699.64 1051.38 636.41 1079.65 673.69 996.69 736.92"/><rect class="cls-6" x="606.44" y="546.79" width="46.83" height="104.22" transform="translate(1408.15 176.88) rotate(94.85)"/><polygon class="cls-6" points="850.87 607.07 864.73 562.34 964.26 593.33 950.4 638.05 850.87 607.07"/><polygon class="cls-6" points="1128.91 692.45 1156.03 654.32 1240.9 714.95 1213.78 753.09 1128.91 692.45"/><polygon class="cls-6" points="1149.22 919.09 1127.28 877.74 1219.29 828.67 1241.23 870.02 1149.22 919.09"/><polygon class="cls-6" points="1155.41 554.82 1169.27 510.09 1268.8 541.08 1254.94 585.8 1155.41 554.82"/><polygon class="cls-6" points="1127.68 383.63 1143.03 339.39 1241.46 373.73 1226.11 417.96 1127.68 383.63"/><polygon class="cls-6" points="1006.12 524.97 984.18 483.62 1076.19 434.55 1098.13 475.9 1006.12 524.97"/><polygon class="cls-6" points="1229.24 225.4 1213.85 181.19 1312.25 146.75 1327.64 190.97 1229.24 225.4"/><polygon class="cls-6" points="1036.63 244.9 1050.48 200.17 1150.02 231.16 1136.16 275.88 1036.63 244.9"/><polygon class="cls-6" points="1301.41 277.11 1328.53 238.97 1413.4 299.61 1386.28 337.75 1301.41 277.11"/><polygon class="cls-6" points="1266.58 356.86 1304.59 329.63 1365.2 414.62 1327.19 441.86 1266.58 356.86"/><path class="cls-6" d="M245.52,45.77" transform="translate(128.26 154.92)"/></g><polygon class="cls-7" points="1185.43 851.51 139.51 851.51 280.51 491.78 1366.36 166.36 1185.43 851.51"/><polygon class="cls-3" points="139.59 851.32 139.79 851.51 1185.43 851.51 1365.8 168.5 1157.51 824.25 149.51 842.25 139.62 851.24 139.59 851.32"/><path class="cls-8" d="M291.94,785.56c-95,0-132.85-42.43-132.85-134.23V485.74h89V651.33c0,47,10.14,60.89,43.82,60.89,34.13,0,43.82-13.84,43.82-60.89V485.74h89.48V651.33C425.24,743.13,387.42,785.56,291.94,785.56Z" transform="translate(128.26 154.92)"/><path class="cls-8" d="M590.82,695.62H563.61V781H475.05V485.74H587.13c119,0,128.7,60.43,128.7,105.63C715.83,636.11,709.37,695.62,590.82,695.62Zm-1.38-139.31H563.61v70.58h25.83c29.52,0,36.9-17.07,36.9-35.52C626.34,572.46,618.5,556.31,589.44,556.31Z" transform="translate(128.26 154.92)"/><path class="cls-8" d="M424.77,211.59v51.2H542.86v67.8H424.77V436.22h-88.1V141H552.54v70.58Z" transform="translate(128.26 154.92)"/><path class="cls-8" d="M586.67,436.22V141h219.1v70.58h-131V254H792.39v64.12H674.77v47.51h131v70.57Z" transform="translate(128.26 154.92)"/><path class="cls-8" d="M962.13,436.22H848.19V141H966.74c95,0,139.76,56.74,139.76,145.76C1106.5,375.33,1058.53,436.22,962.13,436.22ZM952.9,211.59H936.76V365.65h14.3c42.89,0,68.26-11.07,68.26-79.34C1019.32,219.43,996.26,211.59,952.9,211.59Z" transform="translate(128.26 154.92)"/><polygon class="cls-8" points="1020.69 641.03 893.47 706.16 893.47 798.89 976.65 756.83 976.65 936.25 1064.73 936.25 1064.73 756.83 1147.91 798.89 1147.91 706.16 1020.69 641.03"/><path class="cls-9" d="M284.94,775.56c-95,0-132.85-42.43-132.85-134.23V475.74h89V641.33c0,47,10.14,60.89,43.82,60.89,34.13,0,43.82-13.84,43.82-60.89V475.74h89.48V641.33C418.24,733.13,380.42,775.56,284.94,775.56Z" transform="translate(128.26 154.92)"/><path class="cls-9" d="M583.82,685.62H556.61V771H468.05V475.74H580.13c119,0,128.7,60.43,128.7,105.63C708.83,626.11,702.37,685.62,583.82,685.62Zm-1.38-139.31H556.61v70.58h25.83c29.52,0,36.9-17.07,36.9-35.52C619.34,562.46,611.5,546.31,582.44,546.31Z" transform="translate(128.26 154.92)"/><path class="cls-9" d="M417.77,201.59v51.2H535.86v67.8H417.77V426.22h-88.1V131H545.54v70.58Z" transform="translate(128.26 154.92)"/><path class="cls-9" d="M579.67,426.22V131h219.1v70.58h-131V244H785.39v64.12H667.77v47.51h131v70.57Z" transform="translate(128.26 154.92)"/><path class="cls-9" d="M955.13,426.22H841.19V131H959.74c95,0,139.76,56.74,139.76,145.76C1099.5,365.33,1051.53,426.22,955.13,426.22ZM945.9,201.59H929.76V355.65h14.3c42.89,0,68.26-11.07,68.26-79.34C1012.32,209.43,989.26,201.59,945.9,201.59Z" transform="translate(128.26 154.92)"/><polygon class="cls-10" points="1140.58 695.99 1140.58 788.73 1140.91 788.89 1140.91 696.16 1140.58 695.99"/><polygon class="cls-9" points="1013.69 631.03 886.47 696.16 886.47 788.89 969.65 746.83 969.65 842.25 1057.73 842.25 1057.73 746.83 1140.91 788.89 1140.91 696.16 1013.69 631.03"/><polyline class="cls-9" points="1057.73 884.91 1057.73 862.94 969.65 862.94 969.65 884.91 1013.69 884.91 1013.69 884.91 1013.69 884.91"/><polyline class="cls-9" points="1057.73 924.87 1057.73 891.38 969.65 891.38 969.65 924.87 1013.69 924.87 1013.69 924.87 1013.69 924.87"/><polygon class="cls-9" points="969.65 842.25 969.65 855.99 1013.69 855.99 1013.69 855.99 1013.69 855.99 1057.73 855.99 1057.73 842.25 969.65 842.25"/></g></svg>